<?xml version="1.0" encoding="utf-8"?>
<!-- Generator: Adobe Illustrator 21.1.0, SVG Export Plug-In . SVG Version: 6.00 Build 0)  -->
<svg version="1.1" id="Layer_1" xmlns="http://www.w3.org/2000/svg" xmlns:xlink="http://www.w3.org/1999/xlink" x="0px" y="0px"
	 viewBox="0 0 500 500" style="enable-background:new 0 0 500 500;" xml:space="preserve">
<style type="text/css">
	.st0{fill:#C2CECF;}
	.st1{fill:#E8E8E9;}
	.st2{display:none;fill:#B78C2E;stroke:#C2CECF;stroke-width:2;stroke-miterlimit:10;}
	.st3{display:none;fill:none;stroke:#C2CECF;stroke-width:1.7;stroke-linecap:round;stroke-linejoin:round;stroke-miterlimit:10;}
	.st4{fill:#FDF6B3;}
	.st5{fill:#D1D2D3;}
	.st6{fill:#1F3640;}
	.st7{fill:#B78C2E;}
	.st8{fill:#8D4A89;}
	.st9{display:none;fill:#492060;}
	.st10{display:none;fill:#4D2560;}
	.st11{display:none;fill:#62235A;}
	.st12{display:none;fill:#643963;}
	.st13{fill:#403956;}
</style>
<g>
	<path class="st0" d="M329.8,89.9c0,0-0.7-5.3,22.8-8.4l-3.2,10.3C349.4,91.8,334.1,92.8,329.8,89.9z"/>
	<path class="st0" d="M373.9,75.4c0,0-15.4,1.8-21.3,6.1c0,0-10.8,6.5-3.2,10.3c0,0,7.5,0.1,20.9-5L373.9,75.4z"/>
	<path class="st1" d="M395.8,68.9c0,0-14.5,2-22,6.5c-7.4,4.6-3.5,11.3-3.5,11.3s16.1-3.9,21.9-7.9
		C392.2,78.9,409.9,66.9,395.8,68.9z"/>
	<path class="st0" d="M417.3,62.1c0,0-17.5,3.1-21.5,6.8c-4.1,3.6-4.9,8.2-3.6,10c0,0,16.5-2.9,23.4-8.4
		C415.7,70.5,434.5,59.8,417.3,62.1z"/>
	<path class="st1" d="M439.3,55.9c0,0-15.4,1.7-22,6.2c0,0-3.7,5.3,1.2,6.6c0,0,13.8-1.4,21.9-7.1C440.3,61.7,452.3,54.1,439.3,55.9
		z"/>
	<path class="st0" d="M458,50.8c0,0-9.7,0.2-18.7,5.1c0,0-5.8,5.2,1.1,6.4c0,0,12.3-1.3,20.3-6.8C460.8,55.5,475.7,48.8,458,50.8z"
		/>
	<path class="st1" d="M500,40.1c0,0-18.4,4.4-28.7,6.3c-10.2,1.9-20.6,5.3-10.5,9.1C460.8,55.5,482,51.3,500,40.1z"/>
</g>
<polygon class="st2" points="456.2,37.9 339.1,100.7 327.8,74.6 "/>
<polyline class="st3" points="430,51.9 412.8,50.3 388.1,74.4 357.5,66.1 339.1,100.7 "/>
<g>
	<g>
		<path class="st4" d="M174.6,166.6c-0.5-1.7-0.7-3-0.7-4.8c0-4.2-0.3-7.6-1.8-11.5c-1.7-4.8-3.9-9.4-5.2-14.3
			c-0.3-1.1,1.5-1.4,1.8-0.3c1.4,5.3,3.7,10.2,5.6,15.3c0.7,2,1.3,4.1,1.6,6.2c0.4,3-0.7,5.6,0.4,8.7
			C176.7,167,175,167.8,174.6,166.6z"/>
		<path class="st4" d="M144.1,191.8c6.5-9.3,14.5-17,23.3-24.1c-10.5-3.8-21.3-7-32.2-9.4c-1.1-0.3-0.9-2.1,0.2-1.8
			c13.2,2.9,26.3,7,38.9,11.9c1.1,0.4,0.4,2.1-0.7,1.7c-1.4-0.6-2.8-1.1-4.3-1.6c-0.1,0.1-0.1,0.2-0.2,0.3
			c-8.9,7.1-17,14.9-23.6,24.2C144.8,193.8,143.4,192.7,144.1,191.8z"/>
		<polygon class="st1" points="246.5,113.9 254.2,135.4 280.6,113.5 		"/>
		<polygon class="st5" points="246.5,113.9 224.1,138.1 254.2,135.4 		"/>
		<g>
			<polygon class="st6" points="280.6,113.5 284.1,124.6 254.2,135.4 			"/>
		</g>
		<polygon class="st1" points="254.2,135.4 255.8,145.5 284.1,124.6 		"/>
		<polygon class="st0" points="284.1,124.6 319.4,108.5 317.6,85.9 		"/>
		<polygon class="st7" points="280.9,114.3 284.1,124.6 317.6,85.9 280.6,113.5 		"/>
		<path class="st8" d="M318.6,180.2"/>
		<polygon class="st0" points="280.6,113.5 284.5,75.2 317.6,85.9 		"/>
		<polygon class="st7" points="317.6,85.9 321.1,70.3 284.5,75.2 		"/>
		<polygon class="st0" points="317.6,85.9 344.8,86.5 321.1,70.3 		"/>
		<g>
			<polygon class="st6" points="317.6,85.9 319.4,108.5 344.7,86.5 			"/>
		</g>
		<polygon class="st7" points="246.5,113.9 280.6,113.5 284.5,75.2 		"/>
		<polygon class="st0" points="284.5,75.2 279.4,63 321.1,70.3 		"/>
		<polygon class="st0" points="250.3,68.2 279.4,63 284.5,75.2 		"/>
		<g>
			<polygon class="st6" points="250.3,68.2 246.5,113.9 284.8,75.1 			"/>
		</g>
		<polygon class="st7" points="224.1,138.1 216.8,114.5 246.5,113.9 		"/>
		<polygon class="st7" points="216.8,114.5 220.9,73.9 248.9,85.4 		"/>
		<polygon class="st0" points="220.9,73.9 250.3,68.2 248.9,85.4 		"/>
		<polygon class="st0" points="216.8,114.5 248.9,85.4 246.5,113.9 		"/>
		<polygon class="st0" points="319.4,108.5 339.6,104.2 344.7,86.5 		"/>
		<polygon class="st0" points="319.4,108.5 288.4,152.2 339.6,104.2 		"/>
		<polygon class="st1" points="319.4,108.5 284.1,124.6 288.4,152.2 		"/>
		<polygon class="st0" points="255.8,145.5 284.1,124.6 288.4,152.2 		"/>
		<polygon class="st1" points="255.8,145.5 267.3,173.3 288.4,152.2 		"/>
		<polygon class="st0" points="255.8,145.5 249.3,172.2 267.3,173.3 		"/>
		<polygon class="st7" points="83.1,235.2 126.5,226.2 109.8,277.1 		"/>
		<polygon class="st0" points="65.9,272.1 62.6,246.6 83.1,235.2 		"/>
		<polygon class="st0" points="83.1,235.2 98.2,248 65.9,272.1 		"/>
		<g>
			<polygon class="st6" points="78.6,262.7 103.6,262.7 98.2,248 			"/>
		</g>
		<polygon class="st0" points="78.6,262.7 109.8,277.1 103.6,262.7 		"/>
		<polygon class="st0" points="188.9,285 164.8,294.7 175,314.7 		"/>
		<polygon class="st1" points="164.8,294.7 157.5,327.5 175,314.7 		"/>
		<g>
			<polygon class="st6" points="164.8,294.7 129.6,315.5 157.5,327.5 			"/>
		</g>
		<polygon class="st7" points="129.6,315.5 124.3,341.9 157.5,327.5 		"/>
		<polygon class="st0" points="124.3,341.9 156.5,362 157.5,327.5 		"/>
		<polygon class="st1" points="124.3,341.9 136.6,360.5 156.5,362 		"/>
		<polygon class="st0" points="220.3,398.9 200.2,404.8 216.2,419.7 		"/>
		<polygon class="st7" points="220.3,398.9 261.7,407.2 216.2,419.7 		"/>
		<polygon class="st0" points="220.3,398.9 258.4,385.6 261.7,407.2 		"/>
		<polygon class="st7" points="258.4,385.6 230,377.5 220.3,398.9 		"/>
		<polygon class="st0" points="230,377.5 258.7,370.2 258.4,385.6 		"/>
		<polygon class="st1" points="230,377.5 235.5,367.8 258.7,370.2 		"/>
		<polygon class="st7" points="235.5,367.8 261.6,357.8 258.7,370.2 		"/>
		<polygon class="st0" points="258.7,370.2 283.6,354.4 261.6,357.8 		"/>
		<polygon class="st1" points="258.7,370.2 280.5,379.2 283.6,354.4 		"/>
		<polygon class="st7" points="258.7,370.2 258.4,385.6 280.5,379.2 		"/>
		<polygon class="st1" points="258.4,385.6 273.5,397.9 280.5,379.2 		"/>
		<polygon class="st7" points="258.4,385.6 261.7,407.2 273.5,397.9 		"/>
		<polygon class="st0" points="261.7,407.2 251.1,425.4 216.2,419.7 		"/>
		<polygon class="st1" points="251.1,425.4 248,445.5 216.2,419.7 		"/>
		<polygon class="st7" points="216.2,419.7 230.4,453.2 248,445.5 		"/>
		<polygon class="st0" points="230.4,453.2 252.1,468 248,445.5 		"/>
		<polygon class="st1" points="248,445.5 290.8,467.1 252.1,468 		"/>
		<polygon class="st7" points="248,445.5 274.3,437.7 290.8,467.1 		"/>
		<polygon class="st7" points="248,445.5 251.1,425.4 274.3,437.7 		"/>
		<polygon class="st1" points="251.1,425.4 261.7,407.2 271.5,412.6 		"/>
		<polygon class="st0" points="251.1,425.4 271.5,412.6 274.3,437.7 		"/>
		<polygon class="st7" points="213.9,243 151.9,239 197.9,270.3 		"/>
		<polygon class="st0" points="197.9,270.3 135.5,273.2 188.9,285 		"/>
		<polygon class="st7" points="216.8,114.5 166.8,133.8 176.3,167.9 		"/>
		<g>
			<polygon class="st6" points="133,158 166.8,133.8 176.3,167.9 			"/>
		</g>
		<polygon class="st0" points="133,158 140.9,196.5 176.3,167.9 		"/>
		<g>
			<polygon class="st6" points="133,158 107.6,188.4 140.9,196.5 			"/>
		</g>
		<polygon class="st7" points="107.6,188.4 100.2,158.6 80.1,196.8 		"/>
		<polygon class="st0" points="107.6,188.4 126.5,226.2 140.9,196.5 		"/>
		<g>
			<polygon class="st6" points="80.1,196.8 126.5,226.2 107.6,188.4 			"/>
		</g>
		<polygon class="st7" points="78.6,262.7 69.4,300.6 65.9,272.1 		"/>
		<g>
			<polygon class="st6" points="78.6,262.7 109.8,277.1 69.4,300.6 			"/>
		</g>
		<polygon class="st7" points="69.4,300.6 102.8,322.1 109.8,277.1 		"/>
		<polygon class="st0" points="69.4,300.6 83,333.2 102.8,322.1 		"/>
		<polygon class="st7" points="102.8,322.1 106.9,364.2 83,333.2 		"/>
		<polygon class="st7" points="157.5,327.5 175.4,336 175,314.7 		"/>
		<g>
			<polygon class="st6" points="157.5,327.5 156.5,362 175.4,336 			"/>
		</g>
		<polygon class="st7" points="156.5,362 183.8,369.1 175.4,336 		"/>
		<polygon class="st0" points="183.8,369.1 172.7,411.3 200.2,404.8 		"/>
		<polygon class="st7" points="220.3,398.9 200.2,404.8 183.8,369.1 		"/>
		<polygon class="st0" points="80.1,196.8 74.3,224.7 126.5,226.2 		"/>
		<polygon class="st7" points="74.3,224.7 83.1,235.2 126.5,226.2 		"/>
		<polygon class="st7" points="74.3,224.7 62.6,246.6 83.1,235.2 		"/>
		<polygon class="st9" points="74.3,224.7 28.6,221.2 80.1,196.8 		"/>
		<polygon class="st10" points="74.3,224.7 62.6,246.6 33.4,243.3 		"/>
		<polygon class="st11" points="28.6,221.2 33.4,243.3 74.3,224.7 		"/>
		<polygon class="st12" points="28.6,221.2 4,254.7 33.4,243.3 		"/>
		<g>
			<polygon class="st6" points="166.8,133.8 220.9,73.9 216.8,114.5 			"/>
		</g>
		<polygon class="st0" points="166.8,133.8 121.9,136.1 162.9,101.9 		"/>
		<polygon class="st7" points="162.9,101.9 166.8,133.8 181.6,90.4 		"/>
		<polygon class="st0" points="166.8,133.8 181.6,90.4 220.9,73.9 		"/>
		<polygon class="st0" points="121.9,136.1 133,158 166.8,133.8 		"/>
		<polygon class="st7" points="121.9,136.1 100.2,158.6 133,158 		"/>
		<polygon class="st0" points="100.2,158.6 107.6,188.4 133,158 		"/>
		<polygon class="st7" points="249.3,172.2 269.3,208.6 267.3,173.3 		"/>
		<g>
			<polygon class="st6" points="213.9,243 269.3,208.6 215.3,205.3 			"/>
		</g>
		<polygon class="st0" points="215.3,205.3 233.1,189.1 269.3,208.6 		"/>
		<polygon class="st0" points="233.1,189.1 249.3,172.2 269.3,208.6 		"/>
		<polygon class="st0" points="213.9,243 246.1,271 228.4,272.3 		"/>
		<polygon class="st7" points="269.3,208.6 246.1,271 213.9,243 		"/>
		<polygon class="st0" points="269.3,208.6 263.3,244.9 246.1,271 		"/>
		<g>
			<polygon class="st6" points="216.8,114.5 176.3,167.9 224.1,138.1 			"/>
		</g>
		<polygon class="st7" points="135.5,273.2 129.6,315.5 188.9,285 		"/>
		<g>
			<polygon class="st6" points="224.1,138.1 255.8,145.5 254.2,135.4 			"/>
		</g>
		<polygon class="st0" points="224.1,138.1 209.5,164.9 255.8,145.5 		"/>
		<polygon class="st7" points="209.5,164.9 249.3,172.2 255.8,145.5 		"/>
		<polygon class="st1" points="176.3,167.9 209.5,164.9 224.1,138.1 		"/>
		<polygon class="st0" points="176.3,167.9 171.5,210.1 209.5,164.9 		"/>
		<g>
			<polygon class="st6" points="209.5,164.9 233.1,189.1 249.3,172.2 			"/>
		</g>
		<polygon class="st7" points="209.5,164.9 195.8,181.2 233.1,189.1 		"/>
		<polygon class="st1" points="195.8,181.2 215.3,205.3 233.1,189.1 		"/>
		<g>
			<polygon class="st6" points="171.5,210.1 215.3,205.3 195.8,181.2 			"/>
		</g>
		<polygon class="st0" points="171.5,210.1 213.9,243 215.3,205.3 		"/>
		<g>
			<polygon class="st6" points="140.9,196.5 171.5,210.1 176.3,167.9 			"/>
		</g>
		<g>
			<polygon class="st6" points="171.5,210.1 151.9,239 213.9,243 			"/>
		</g>
		<g>
			<polygon class="st6" points="151.9,239 135.5,273.2 197.9,270.3 			"/>
		</g>
		<polygon class="st13" points="172.7,411.3 216.2,419.7 200.2,404.8 		"/>
		<polygon class="st7" points="172.7,411.3 152.7,400.4 183.8,369.1 		"/>
		<polygon class="st0" points="152.7,400.4 156.5,362 183.8,369.1 		"/>
		<polygon class="st7" points="156.5,362 131.2,384.8 152.7,400.4 		"/>
		<polygon class="st0" points="136.6,360.5 131.2,384.8 156.5,362 		"/>
		<polygon class="st0" points="136.6,360.5 107.2,364.8 131.2,384.8 		"/>
		<polygon class="st7" points="107.2,364.8 124.3,341.9 136.6,360.5 		"/>
		<polygon class="st0" points="124.3,341.9 102.8,322.1 107.2,364.8 		"/>
		<polygon class="st0" points="102.8,322.1 129.6,315.5 124.3,341.9 		"/>
		<g>
			<polygon class="st6" points="102.8,322.1 109.8,277.1 129.6,315.5 			"/>
		</g>
		<polygon class="st0" points="109.8,277.1 135.5,273.2 129.6,315.5 		"/>
		<g>
			<polygon class="st6" points="135.5,273.2 126.5,226.2 109.8,277.1 			"/>
		</g>
		<polygon class="st7" points="126.5,226.2 151.9,239 135.5,273.2 		"/>
		<polygon class="st7" points="140.9,196.5 126.5,226.2 171.5,210.1 		"/>
		<polygon class="st0" points="126.5,226.2 151.9,239 171.5,210.1 		"/>
		<g>
			<polygon class="st6" points="83.1,235.2 98.2,248 126.5,226.2 			"/>
		</g>
	</g>
</g>
</svg>
