<?xml version="1.0" encoding="utf-8"?>
<!-- Generator: Adobe Illustrator 21.1.0, SVG Export Plug-In . SVG Version: 6.00 Build 0)  -->
<svg version="1.1" id="Layer_1" xmlns="http://www.w3.org/2000/svg" xmlns:xlink="http://www.w3.org/1999/xlink" x="0px" y="0px"
	 viewBox="0 0 900 900" style="enable-background:new 0 0 900 900;" xml:space="preserve">
<style type="text/css">
	.st0{fill:#C3CFCF;}
	.st1{enable-background:new    ;}
	.st2{fill:#1F3640;}
	.st3{fill:#C2CECF;}
	.st4{fill:#E8E8E9;}
	.st5{display:none;fill:#B78C2E;stroke:#C2CECF;stroke-width:2;stroke-miterlimit:10;}
	.st6{display:none;fill:none;stroke:#C2CECF;stroke-width:1.7;stroke-linecap:round;stroke-linejoin:round;stroke-miterlimit:10;}
	.st7{fill:#FDF6B3;}
	.st8{fill:#D1D2D3;}
	.st9{fill:#B78C2E;}
	.st10{fill:#8D4A89;}
	.st11{display:none;fill:#492060;}
	.st12{display:none;fill:#4D2560;}
	.st13{display:none;fill:#62235A;}
	.st14{display:none;fill:#643963;}
	.st15{fill:#403956;}
</style>
<g id="Layer_1_1_">
	<g>
		<rect x="-20.4" y="-14" class="st0" width="935.9" height="945.7"/>
	</g>
</g>
<g id="Layer_1_2_">
	<g class="st1">
		<path class="st2" d="M222.3,789.9c0-9-0.2-16.4-0.7-23.6h14.1l0.9,14.4h0.4c4.3-8.3,14.4-16.4,28.8-16.4
			c12.1,0,30.8,7.2,30.8,37.1v52.1h-15.9v-50.3c0-14.1-5.2-25.8-20.2-25.8c-10.4,0-18.6,7.4-21.3,16.2c-0.7,2-1.1,4.7-1.1,7.4v52.4
			h-15.9L222.3,789.9L222.3,789.9z"/>
		<path class="st2" d="M370.6,853.5l-1.3-11h-0.5c-4.9,6.8-14.2,13-26.7,13c-17.7,0-26.7-12.4-26.7-25c0-21.1,18.7-32.6,52.4-32.4
			v-1.8c0-7.2-2-20.2-19.8-20.2c-8.1,0-16.6,2.5-22.7,6.5l-3.6-10.4c7.2-4.7,17.7-7.7,28.6-7.7c26.7,0,33.1,18.2,33.1,35.7v32.6
			c0,7.6,0.4,15,1.4,20.9L370.6,853.5L370.6,853.5z M368.2,809c-17.3-0.4-36.9,2.7-36.9,19.6c0,10.3,6.8,15.1,15,15.1
			c11.4,0,18.6-7.2,21.1-14.6c0.5-1.6,0.9-3.4,0.9-5V809H368.2z"/>
		<path class="st2" d="M409.1,793.5c0-10.3-0.2-19.1-0.7-27.2h13.9l0.5,17.1h0.7c4-11.7,13.5-19.1,24.1-19.1c1.8,0,3.1,0.2,4.5,0.5
			v15c-1.6-0.4-3.2-0.5-5.4-0.5c-11.2,0-19.1,8.5-21.3,20.4c-0.4,2.2-0.7,4.7-0.7,7.4v46.5H409L409.1,793.5L409.1,793.5z"/>
		<path class="st2" d="M478.9,766.3l11.5,44.3c2.5,9.7,4.9,18.7,6.5,27.7h0.5c2-8.8,4.9-18.2,7.7-27.6l14.2-44.5h13.3l13.5,43.6
			c3.2,10.4,5.8,19.6,7.7,28.5h0.5c1.4-8.8,3.8-18,6.7-28.3l12.4-43.8h15.7L561,853.4h-14.4l-13.3-41.6c-3.1-9.7-5.6-18.4-7.7-28.6
			h-0.4c-2.2,10.4-4.9,19.5-7.9,28.8l-14.1,41.4H489l-26.3-87.2L478.9,766.3L478.9,766.3z"/>
		<path class="st2" d="M652.5,853.5l-1.3-11h-0.5c-4.9,6.8-14.2,13-26.7,13c-17.7,0-26.7-12.4-26.7-25c0-21.1,18.7-32.6,52.4-32.4
			v-1.8c0-7.2-2-20.2-19.8-20.2c-8.1,0-16.6,2.5-22.7,6.5l-3.6-10.4c7.2-4.7,17.7-7.7,28.6-7.7c26.7,0,33.2,18.2,33.2,35.7v32.6
			c0,7.6,0.4,15,1.4,20.9L652.5,853.5L652.5,853.5z M650.2,809c-17.3-0.4-36.9,2.7-36.9,19.6c0,10.3,6.8,15.1,15,15.1
			c11.4,0,18.6-7.2,21.1-14.6c0.5-1.6,0.9-3.4,0.9-5L650.2,809L650.2,809z"/>
		<path class="st2" d="M691.1,725.6H707v127.9h-15.9V725.6z"/>
	</g>
	<g>
		<path class="st3" d="M543.5,149.1c0,0-0.9-6.7,28.8-10.6l-4,13C568.2,151.4,549,152.9,543.5,149.1z"/>
		<path class="st2" d="M599.2,130.9c0,0-19.5,2.2-26.8,7.6c0,0-13.5,8.1-4,13c0,0,9.5,0.2,26.5-6.3L599.2,130.9z"/>
		<path class="st4" d="M626.8,122.6c0,0-18.4,2.5-27.7,8.3c-9.4,5.8-4.5,14.2-4.5,14.2s20.4-5,27.6-9.9
			C622.3,135.2,644.6,120.1,626.8,122.6z"/>
		<path class="st2" d="M654,114.1c0,0-22,4-27.2,8.5c-5,4.5-6.1,10.4-4.5,12.6c0,0,20.9-3.6,29.5-10.6
			C651.8,124.6,675.8,111.1,654,114.1z"/>
		<path class="st4" d="M681.7,106.2c0,0-19.5,2.2-27.7,7.7c0,0-4.7,6.7,1.4,8.3c0,0,17.5-1.8,27.6-9
			C683,113.6,698.1,104,681.7,106.2z"/>
		<path class="st2" d="M705.3,99.9c0,0-12.3,0.4-23.6,6.5c0,0-7.2,6.5,1.4,8.1c0,0,15.5-1.6,25.8-8.5
			C708.9,105.8,727.7,97.4,705.3,99.9z"/>
		<path class="st4" d="M758.3,86.4c0,0-23.2,5.6-36.2,7.9c-13,2.5-25.9,6.7-13.3,11.5C708.9,105.8,735.6,100.4,758.3,86.4z"/>
	</g>
	<polygon class="st5" points="703,45.7 555.3,124.9 541,92 	"/>
	<polyline class="st6" points="670,63.3 648.2,61.3 617.2,91.8 578.5,81.3 555.3,124.9 	"/>
	<g>
		<g>
			<path class="st7" d="M347.7,246c-0.7-2.2-0.9-3.8-0.9-6.1c0-5.2-0.4-9.5-2.2-14.6c-2.2-6.1-4.9-11.9-6.5-18
				c-0.4-1.4,2-1.8,2.3-0.4c1.8,6.7,4.7,12.8,7,19.3c0.9,2.5,1.6,5,2,7.7c0.5,3.8-0.9,7,0.5,11C350.4,246.5,348.2,247.4,347.7,246z"
				/>
			<path class="st7" d="M309.2,277.7c8.1-11.7,18.4-21.4,29.4-30.4c-13.3-4.9-26.8-8.8-40.7-11.9c-1.4-0.4-1.3-2.7,0.2-2.3
				c16.6,3.6,33.2,8.8,49,15c1.4,0.5,0.5,2.7-0.9,2.2c-1.8-0.7-3.6-1.4-5.4-2c0,0.2-0.2,0.2-0.2,0.4c-11.2,9-21.4,18.7-29.7,30.6
				C310.2,280.2,308.3,279,309.2,277.7z"/>
			<polygon class="st4" points="438.3,179.5 448.2,206.6 481.6,179 			"/>
			<polygon class="st8" points="438.3,179.5 410.2,210 448.2,206.6 			"/>
			<g>
				<polygon class="st2" points="481.6,179 485.9,192.9 448.2,206.6 				"/>
			</g>
			<polygon class="st4" points="448.2,206.6 450.2,219.3 485.9,192.9 			"/>
			<polygon class="st3" points="485.9,192.9 530.4,172.7 528.2,144 			"/>
			<polygon class="st9" points="481.8,179.9 485.9,192.9 528.2,144 481.6,179 			"/>
			<path class="st10" d="M529.3,263.1"/>
			<polygon class="st3" points="481.6,179 486.4,130.5 528.2,144 			"/>
			<polygon class="st9" points="528.2,144 532.6,124.6 486.4,130.5 			"/>
			<polygon class="st2" points="528.2,144 562.5,144.9 532.6,124.6 			"/>
			<g>
				<polygon class="st2" points="528.2,144 530.4,172.7 562.3,144.9 				"/>
			</g>
			<polygon class="st9" points="438.3,179.5 481.6,179 486.4,130.5 			"/>
			<polygon class="st3" points="486.4,130.5 479.9,115.2 532.6,124.6 			"/>
			<polygon class="st3" points="443.2,121.9 479.9,115.2 486.4,130.5 			"/>
			<g>
				<polygon class="st2" points="443.2,121.9 438.3,179.5 486.8,130.5 				"/>
			</g>
			<polygon class="st9" points="410.2,210 401,180.2 438.3,179.5 			"/>
			<polygon class="st9" points="401,180.2 406.1,128.9 441.4,143.5 			"/>
			<polygon class="st2" points="406.1,128.9 443.2,121.9 441.4,143.5 			"/>
			<polygon class="st3" points="401,180.2 441.4,143.5 438.3,179.5 			"/>
			<polygon class="st3" points="530.4,172.7 556,167.3 562.3,144.9 			"/>
			<polygon class="st3" points="530.4,172.7 491.3,227.8 556,167.3 			"/>
			<polygon class="st4" points="530.4,172.7 485.9,192.9 491.3,227.8 			"/>
			<polygon class="st3" points="450.2,219.3 485.9,192.9 491.3,227.8 			"/>
			<polygon class="st4" points="450.2,219.3 464.6,254.5 491.3,227.8 			"/>
			<polygon class="st3" points="450.2,219.3 441.9,253 464.6,254.5 			"/>
			<polygon class="st9" points="232.2,332.5 287,321.1 266.1,385.5 			"/>
			<polygon class="st2" points="210.6,379.1 206.5,346.9 232.2,332.5 			"/>
			<polygon class="st3" points="232.2,332.5 251.3,348.7 210.6,379.1 			"/>
			<g>
				<polygon class="st2" points="226.6,367.1 258.2,367.3 251.3,348.7 				"/>
			</g>
			<polygon class="st3" points="226.6,367.1 266.1,385.5 258.2,367.3 			"/>
			<polygon class="st2" points="365.7,395.4 335.3,407.4 348.2,432.8 			"/>
			<polygon class="st4" points="335.3,407.4 326.1,449.1 348.2,432.8 			"/>
			<g>
				<polygon class="st2" points="335.3,407.4 291,433.7 326.1,449.1 				"/>
			</g>
			<polygon class="st9" points="291,433.7 284.3,467.1 326.1,449.1 			"/>
			<polygon class="st3" points="284.3,467.1 324.8,492.5 326.1,449.1 			"/>
			<polygon class="st4" points="284.3,467.1 299.8,490.7 324.8,492.5 			"/>
			<polygon class="st3" points="405.4,539 380.1,546.5 400.3,565.3 			"/>
			<polygon class="st9" points="405.4,539 457.6,549.6 400.3,565.3 			"/>
			<polygon class="st3" points="405.4,539 453.5,522.2 457.6,549.6 			"/>
			<polygon class="st9" points="453.5,522.2 417.6,512.1 405.4,539 			"/>
			<polygon class="st3" points="417.6,512.1 453.8,502.7 453.5,522.2 			"/>
			<polygon class="st4" points="417.6,512.1 424.6,499.7 453.8,502.7 			"/>
			<polygon class="st9" points="424.6,499.7 457.6,487.1 453.8,502.7 			"/>
			<polygon class="st3" points="453.8,502.7 485.2,482.9 457.6,487.1 			"/>
			<polygon class="st4" points="453.8,502.7 481.4,514.3 485.2,482.9 			"/>
			<polygon class="st9" points="453.8,502.7 453.5,522.2 481.4,514.3 			"/>
			<polygon class="st4" points="453.5,522.2 472.6,537.9 481.4,514.3 			"/>
			<polygon class="st9" points="453.5,522.2 457.6,549.6 472.6,537.9 			"/>
			<polygon class="st3" points="457.6,549.6 444.3,572.5 400.3,565.3 			"/>
			<polygon class="st4" points="444.3,572.5 440.5,597.9 400.3,565.3 			"/>
			<polygon class="st9" points="400.3,565.3 418.2,607.6 440.5,597.9 			"/>
			<polygon class="st3" points="418.2,607.6 445.5,626.2 440.5,597.9 			"/>
			<polygon class="st4" points="440.5,597.9 494.4,625.1 445.5,626.2 			"/>
			<polygon class="st9" points="440.5,597.9 473.6,588 494.4,625.1 			"/>
			<polygon class="st9" points="440.5,597.9 444.3,572.5 473.6,588 			"/>
			<polygon class="st4" points="444.3,572.5 457.6,549.6 470,556.4 			"/>
			<polygon class="st3" points="444.3,572.5 470,556.4 473.6,588 			"/>
			<polygon class="st9" points="397.3,342.4 319.1,337.4 377.1,376.8 			"/>
			<polygon class="st2" points="377.1,376.8 298.5,380.4 365.7,395.4 			"/>
			<polygon class="st9" points="401,180.2 337.8,204.6 349.9,247.6 			"/>
			<g>
				<polygon class="st2" points="295.3,235 337.8,204.6 349.9,247.6 				"/>
			</g>
			<polygon class="st3" points="295.3,235 305.2,283.7 349.9,247.6 			"/>
			<g>
				<polygon class="st2" points="295.3,235 263.2,273.6 305.2,283.7 				"/>
			</g>
			<polygon class="st9" points="263.2,273.6 253.8,235.9 228.6,284 			"/>
			<polygon class="st3" points="263.2,273.6 287,321.1 305.2,283.7 			"/>
			<g>
				<polygon class="st2" points="228.6,284 287,321.1 263.2,273.6 				"/>
			</g>
			<polygon class="st9" points="226.6,367.1 214.9,415 210.6,379.1 			"/>
			<g>
				<polygon class="st2" points="226.6,367.1 266.1,385.5 214.9,415 				"/>
			</g>
			<polygon class="st9" points="214.9,415 257.1,442.2 266.1,385.5 			"/>
			<polygon class="st2" points="214.9,415 232.2,456.1 257.1,442.2 			"/>
			<polygon class="st9" points="257.1,442.2 262.3,495.4 232.2,456.1 			"/>
			<polygon class="st9" points="326.1,449.1 348.8,459.7 348.2,432.8 			"/>
			<g>
				<polygon class="st2" points="326.1,449.1 324.8,492.5 348.8,459.7 				"/>
			</g>
			<polygon class="st9" points="324.8,492.5 359.4,501.5 348.8,459.7 			"/>
			<polygon class="st3" points="359.4,501.5 345.4,554.6 380.1,546.5 			"/>
			<polygon class="st9" points="405.4,539 380.1,546.5 359.4,501.5 			"/>
			<polygon class="st2" points="228.6,284 221.2,319.2 287,321.1 			"/>
			<polygon class="st9" points="221.2,319.2 232.2,332.5 287,321.1 			"/>
			<polygon class="st9" points="221.2,319.2 206.5,346.9 232.2,332.5 			"/>
			<polygon class="st11" points="221.2,319.2 163.4,314.8 228.6,284 			"/>
			<polygon class="st12" points="221.2,319.2 206.5,346.9 169.5,342.8 			"/>
			<polygon class="st13" points="163.4,314.8 169.5,342.8 221.2,319.2 			"/>
			<polygon class="st14" points="163.4,314.8 132.4,357 169.5,342.8 			"/>
			<g>
				<polygon class="st2" points="337.8,204.6 406.1,128.9 401,180.2 				"/>
			</g>
			<polygon class="st2" points="337.8,204.6 281.2,207.5 332.9,164.4 			"/>
			<polygon class="st9" points="332.9,164.4 337.8,204.6 356.5,149.8 			"/>
			<polygon class="st2" points="337.8,204.6 356.5,149.8 406.1,128.9 			"/>
			<polygon class="st3" points="281.2,207.5 295.3,235 337.8,204.6 			"/>
			<polygon class="st9" points="281.2,207.5 253.8,235.9 295.3,235 			"/>
			<polygon class="st3" points="253.8,235.9 263.2,273.6 295.3,235 			"/>
			<polygon class="st9" points="441.9,253 467.2,298.8 464.6,254.5 			"/>
			<g>
				<polygon class="st2" points="397.3,342.4 467.2,298.8 399.1,294.8 				"/>
			</g>
			<polygon class="st3" points="399.1,294.8 421.6,274.3 467.2,298.8 			"/>
			<polygon class="st3" points="421.6,274.3 441.9,253 467.2,298.8 			"/>
			<polygon class="st3" points="397.3,342.4 438,377.7 415.6,379.3 			"/>
			<polygon class="st9" points="467.2,298.8 438,377.7 397.3,342.4 			"/>
			<polygon class="st3" points="467.2,298.8 459.8,344.7 438,377.7 			"/>
			<g>
				<polygon class="st2" points="401,180.2 349.9,247.6 410.2,210 				"/>
			</g>
			<polygon class="st9" points="298.5,380.4 291,433.7 365.7,395.4 			"/>
			<g>
				<polygon class="st2" points="410.2,210 450.2,219.3 448.2,206.6 				"/>
			</g>
			<polygon class="st3" points="410.2,210 391.8,243.8 450.2,219.3 			"/>
			<polygon class="st9" points="391.8,243.8 441.9,253 450.2,219.3 			"/>
			<polygon class="st4" points="349.9,247.6 391.8,243.8 410.2,210 			"/>
			<polygon class="st3" points="349.9,247.6 343.7,301 391.8,243.8 			"/>
			<g>
				<polygon class="st2" points="391.8,243.8 421.6,274.3 441.9,253 				"/>
			</g>
			<polygon class="st9" points="391.8,243.8 374.6,264.4 421.6,274.3 			"/>
			<polygon class="st4" points="374.6,264.4 399.1,294.8 421.6,274.3 			"/>
			<g>
				<polygon class="st2" points="343.7,301 399.1,294.8 374.6,264.4 				"/>
			</g>
			<polygon class="st3" points="343.7,301 397.3,342.4 399.1,294.8 			"/>
			<g>
				<polygon class="st2" points="305.2,283.7 343.7,301 349.9,247.6 				"/>
			</g>
			<g>
				<polygon class="st2" points="343.7,301 319.1,337.4 397.3,342.4 				"/>
			</g>
			<g>
				<polygon class="st2" points="319.1,337.4 298.5,380.4 377.1,376.8 				"/>
			</g>
			<polygon class="st15" points="345.4,554.6 400.3,565.3 380.1,546.5 			"/>
			<polygon class="st9" points="345.4,554.6 320.1,540.9 359.4,501.5 			"/>
			<polygon class="st3" points="320.1,540.9 324.8,492.5 359.4,501.5 			"/>
			<polygon class="st9" points="324.8,492.5 292.9,521.3 320.1,540.9 			"/>
			<polygon class="st3" points="299.8,490.7 292.9,521.3 324.8,492.5 			"/>
			<polygon class="st2" points="299.8,490.7 262.7,495.9 292.9,521.3 			"/>
			<polygon class="st9" points="262.7,495.9 284.3,467.1 299.8,490.7 			"/>
			<polygon class="st3" points="284.3,467.1 257.1,442.2 262.7,495.9 			"/>
			<polygon class="st3" points="257.1,442.2 291,433.7 284.3,467.1 			"/>
			<g>
				<polygon class="st2" points="257.1,442.2 266.1,385.5 291,433.7 				"/>
			</g>
			<polygon class="st3" points="266.1,385.5 298.5,380.4 291,433.7 			"/>
			<g>
				<polygon class="st2" points="298.5,380.4 287,321.1 266.1,385.5 				"/>
			</g>
			<polygon class="st9" points="287,321.1 319.1,337.4 298.5,380.4 			"/>
			<polygon class="st9" points="305.2,283.7 287,321.1 343.7,301 			"/>
			<polygon class="st3" points="287,321.1 319.1,337.4 343.7,301 			"/>
			<g>
				<polygon class="st2" points="232.2,332.5 251.3,348.7 287,321.1 				"/>
			</g>
		</g>
	</g>
</g>
</svg>
