<?xml version="1.0" encoding="utf-8"?>
<!-- Generator: Adobe Illustrator 21.1.0, SVG Export Plug-In . SVG Version: 6.00 Build 0)  -->
<svg version="1.1" id="Layer_1" xmlns="http://www.w3.org/2000/svg" xmlns:xlink="http://www.w3.org/1999/xlink" x="0px" y="0px"
	 viewBox="0 0 900 900" style="enable-background:new 0 0 900 900;" xml:space="preserve">
<style type="text/css">
	.st0{fill:#C3CFCF;}
	.st1{enable-background:new    ;}
	.st2{fill:#1F3640;}
	.st3{fill:#C2CECF;}
	.st4{fill:#E8E8E9;}
	.st5{display:none;fill:#B78C2E;stroke:#C2CECF;stroke-width:2;stroke-miterlimit:10;}
	.st6{display:none;fill:none;stroke:#C2CECF;stroke-width:1.7;stroke-linecap:round;stroke-linejoin:round;stroke-miterlimit:10;}
	.st7{fill:#FDF6B3;}
	.st8{fill:#D1D2D3;}
	.st9{fill:#B78C2E;}
	.st10{fill:#8D4A89;}
	.st11{display:none;fill:#492060;}
	.st12{display:none;fill:#4D2560;}
	.st13{display:none;fill:#62235A;}
	.st14{display:none;fill:#643963;}
	.st15{fill:#403956;}
</style>
<g id="Layer_1_1_">
	<g>
		<rect x="-20.4" y="-14" class="st0" width="935.9" height="945.7"/>
	</g>
</g>
<g id="Layer_1_2_">
	<g class="st1">
		<path class="st2" d="M217.3,789.9c0-9-0.2-16.4-0.7-23.6h14.1l0.9,14.4h0.4c4.3-8.3,14.4-16.4,28.8-16.4
			c12.1,0,30.8,7.2,30.8,37.1v52.1h-15.9v-50.3c0-14.1-5.2-25.8-20.2-25.8c-10.4,0-18.6,7.4-21.3,16.2c-0.7,2-1.1,4.7-1.1,7.4v52.4
			h-15.9L217.3,789.9L217.3,789.9z"/>
		<path class="st2" d="M365.6,853.5l-1.3-11h-0.5c-4.9,6.8-14.2,13-26.7,13c-17.7,0-26.7-12.4-26.7-25c0-21.1,18.7-32.6,52.4-32.4
			v-1.8c0-7.2-2-20.2-19.8-20.2c-8.1,0-16.6,2.5-22.7,6.5l-3.6-10.4c7.2-4.7,17.7-7.7,28.6-7.7c26.7,0,33.1,18.2,33.1,35.7v32.6
			c0,7.6,0.4,15,1.4,20.9L365.6,853.5L365.6,853.5z M363.2,809c-17.3-0.4-36.9,2.7-36.9,19.6c0,10.3,6.8,15.1,15,15.1
			c11.4,0,18.6-7.2,21.1-14.6c0.5-1.6,0.9-3.4,0.9-5V809z"/>
		<path class="st2" d="M404.1,793.5c0-10.3-0.2-19.1-0.7-27.2h13.9l0.5,17.1h0.7c4-11.7,13.5-19.1,24.1-19.1c1.8,0,3.1,0.2,4.5,0.5
			v15c-1.6-0.4-3.2-0.5-5.4-0.5c-11.2,0-19.1,8.5-21.3,20.4c-0.4,2.2-0.7,4.7-0.7,7.4v46.5h-15.7L404.1,793.5L404.1,793.5z"/>
		<path class="st2" d="M473.9,766.3l11.5,44.3c2.5,9.7,4.9,18.7,6.5,27.7h0.5c2-8.8,4.9-18.2,7.7-27.6l14.2-44.5h13.3l13.5,43.6
			c3.2,10.4,5.8,19.6,7.7,28.5h0.5c1.4-8.8,3.8-18,6.7-28.3l12.4-43.8h15.7l-28.1,87.2h-14.4l-13.3-41.6c-3.1-9.7-5.6-18.4-7.7-28.6
			h-0.4c-2.2,10.4-4.9,19.5-7.9,28.8l-14.1,41.4H484l-26.3-87.2H473.9z"/>
		<path class="st2" d="M647.5,853.5l-1.3-11h-0.5c-4.9,6.8-14.2,13-26.7,13c-17.7,0-26.7-12.4-26.7-25c0-21.1,18.7-32.6,52.4-32.4
			v-1.8c0-7.2-2-20.2-19.8-20.2c-8.1,0-16.6,2.5-22.7,6.5l-3.6-10.4c7.2-4.7,17.7-7.7,28.6-7.7c26.7,0,33.2,18.2,33.2,35.7v32.6
			c0,7.6,0.4,15,1.4,20.9L647.5,853.5L647.5,853.5z M645.2,809c-17.3-0.4-36.9,2.7-36.9,19.6c0,10.3,6.8,15.1,15,15.1
			c11.4,0,18.6-7.2,21.1-14.6c0.5-1.6,0.9-3.4,0.9-5V809z"/>
		<path class="st2" d="M686.1,725.6H702v127.9h-15.9V725.6z"/>
	</g>
	<g>
		<path class="st3" d="M538.5,149.1c0,0-0.9-6.7,28.8-10.6l-4,13C563.2,151.4,544,152.9,538.5,149.1z"/>
		<path class="st2" d="M594.2,130.9c0,0-19.5,2.2-26.8,7.6c0,0-13.5,8.1-4,13c0,0,9.5,0.2,26.5-6.3L594.2,130.9z"/>
		<path class="st4" d="M621.8,122.6c0,0-18.4,2.5-27.7,8.3c-9.4,5.8-4.5,14.2-4.5,14.2s20.4-5,27.6-9.9
			C617.3,135.2,639.6,120.1,621.8,122.6z"/>
		<path class="st2" d="M649,114.1c0,0-22,4-27.2,8.5c-5,4.5-6.1,10.4-4.5,12.6c0,0,20.9-3.6,29.5-10.6
			C646.8,124.6,670.8,111.1,649,114.1z"/>
		<path class="st4" d="M676.7,106.2c0,0-19.5,2.2-27.7,7.7c0,0-4.7,6.7,1.4,8.3c0,0,17.5-1.8,27.6-9
			C678,113.6,693.1,104,676.7,106.2z"/>
		<path class="st2" d="M700.3,99.9c0,0-12.3,0.4-23.6,6.5c0,0-7.2,6.5,1.4,8.1c0,0,15.5-1.6,25.8-8.5
			C703.9,105.8,722.7,97.4,700.3,99.9z"/>
		<path class="st4" d="M753.3,86.4c0,0-23.2,5.6-36.2,7.9c-13,2.5-25.9,6.7-13.3,11.5C703.9,105.8,730.6,100.4,753.3,86.4z"/>
	</g>
	<polygon class="st5" points="698,45.7 550.3,124.9 536,92 	"/>
	<polyline class="st6" points="665,63.3 643.2,61.3 612.2,91.8 573.5,81.3 550.3,124.9 	"/>
	<g>
		<g>
			<path class="st7" d="M342.7,246c-0.7-2.2-0.9-3.8-0.9-6.1c0-5.2-0.4-9.5-2.2-14.6c-2.2-6.1-4.9-11.9-6.5-18
				c-0.4-1.4,2-1.8,2.3-0.4c1.8,6.7,4.7,12.8,7,19.3c0.9,2.5,1.6,5,2,7.7c0.5,3.8-0.9,7,0.5,11C345.4,246.5,343.2,247.4,342.7,246z"
				/>
			<path class="st7" d="M304.2,277.7c8.1-11.7,18.4-21.4,29.4-30.4c-13.3-4.9-26.8-8.8-40.7-11.9c-1.4-0.4-1.3-2.7,0.2-2.3
				c16.6,3.6,33.2,8.8,49,15c1.4,0.5,0.5,2.7-0.9,2.2c-1.8-0.7-3.6-1.4-5.4-2c0,0.2-0.2,0.2-0.2,0.4c-11.2,9-21.4,18.7-29.7,30.6
				C305.2,280.2,303.3,279,304.2,277.7z"/>
			<polygon class="st4" points="433.3,179.5 443.2,206.6 476.6,179 			"/>
			<polygon class="st8" points="433.3,179.5 405.2,210 443.2,206.6 			"/>
			<g>
				<polygon class="st2" points="476.6,179 480.9,192.9 443.2,206.6 				"/>
			</g>
			<polygon class="st4" points="443.2,206.6 445.2,219.3 480.9,192.9 			"/>
			<polygon class="st3" points="480.9,192.9 525.4,172.7 523.2,144 			"/>
			<polygon class="st9" points="476.8,179.9 480.9,192.9 523.2,144 476.6,179 			"/>
			<path class="st10" d="M524.3,263.1"/>
			<polygon class="st3" points="476.6,179 481.4,130.5 523.2,144 			"/>
			<polygon class="st9" points="523.2,144 527.6,124.6 481.4,130.5 			"/>
			<polygon class="st2" points="523.2,144 557.5,144.9 527.6,124.6 			"/>
			<g>
				<polygon class="st2" points="523.2,144 525.4,172.7 557.3,144.9 				"/>
			</g>
			<polygon class="st9" points="433.3,179.5 476.6,179 481.4,130.5 			"/>
			<polygon class="st3" points="481.4,130.5 474.9,115.2 527.6,124.6 			"/>
			<polygon class="st3" points="438.2,121.9 474.9,115.2 481.4,130.5 			"/>
			<g>
				<polygon class="st2" points="438.2,121.9 433.3,179.5 481.8,130.5 				"/>
			</g>
			<polygon class="st9" points="405.2,210 396,180.2 433.3,179.5 			"/>
			<polygon class="st9" points="396,180.2 401.1,128.9 436.4,143.5 			"/>
			<polygon class="st2" points="401.1,128.9 438.2,121.9 436.4,143.5 			"/>
			<polygon class="st3" points="396,180.2 436.4,143.5 433.3,179.5 			"/>
			<polygon class="st3" points="525.4,172.7 551,167.3 557.3,144.9 			"/>
			<polygon class="st3" points="525.4,172.7 486.3,227.8 551,167.3 			"/>
			<polygon class="st4" points="525.4,172.7 480.9,192.9 486.3,227.8 			"/>
			<polygon class="st3" points="445.2,219.3 480.9,192.9 486.3,227.8 			"/>
			<polygon class="st4" points="445.2,219.3 459.6,254.5 486.3,227.8 			"/>
			<polygon class="st3" points="445.2,219.3 436.9,253 459.6,254.5 			"/>
			<polygon class="st9" points="227.2,332.5 282,321.1 261.1,385.5 			"/>
			<polygon class="st2" points="205.6,379.1 201.5,346.9 227.2,332.5 			"/>
			<polygon class="st3" points="227.2,332.5 246.3,348.7 205.6,379.1 			"/>
			<g>
				<polygon class="st2" points="221.6,367.1 253.2,367.3 246.3,348.7 				"/>
			</g>
			<polygon class="st3" points="221.6,367.1 261.1,385.5 253.2,367.3 			"/>
			<polygon class="st2" points="360.7,395.4 330.3,407.4 343.2,432.8 			"/>
			<polygon class="st4" points="330.3,407.4 321.1,449.1 343.2,432.8 			"/>
			<g>
				<polygon class="st2" points="330.3,407.4 286,433.7 321.1,449.1 				"/>
			</g>
			<polygon class="st9" points="286,433.7 279.3,467.1 321.1,449.1 			"/>
			<polygon class="st3" points="279.3,467.1 319.8,492.5 321.1,449.1 			"/>
			<polygon class="st4" points="279.3,467.1 294.8,490.7 319.8,492.5 			"/>
			<polygon class="st3" points="400.4,539 375.1,546.5 395.3,565.3 			"/>
			<polygon class="st9" points="400.4,539 452.6,549.6 395.3,565.3 			"/>
			<polygon class="st3" points="400.4,539 448.5,522.2 452.6,549.6 			"/>
			<polygon class="st9" points="448.5,522.2 412.6,512.1 400.4,539 			"/>
			<polygon class="st3" points="412.6,512.1 448.8,502.7 448.5,522.2 			"/>
			<polygon class="st4" points="412.6,512.1 419.6,499.7 448.8,502.7 			"/>
			<polygon class="st9" points="419.6,499.7 452.6,487.1 448.8,502.7 			"/>
			<polygon class="st3" points="448.8,502.7 480.2,482.9 452.6,487.1 			"/>
			<polygon class="st4" points="448.8,502.7 476.4,514.3 480.2,482.9 			"/>
			<polygon class="st9" points="448.8,502.7 448.5,522.2 476.4,514.3 			"/>
			<polygon class="st4" points="448.5,522.2 467.6,537.9 476.4,514.3 			"/>
			<polygon class="st9" points="448.5,522.2 452.6,549.6 467.6,537.9 			"/>
			<polygon class="st3" points="452.6,549.6 439.3,572.5 395.3,565.3 			"/>
			<polygon class="st4" points="439.3,572.5 435.5,597.9 395.3,565.3 			"/>
			<polygon class="st9" points="395.3,565.3 413.2,607.6 435.5,597.9 			"/>
			<polygon class="st3" points="413.2,607.6 440.5,626.2 435.5,597.9 			"/>
			<polygon class="st4" points="435.5,597.9 489.4,625.1 440.5,626.2 			"/>
			<polygon class="st9" points="435.5,597.9 468.6,588 489.4,625.1 			"/>
			<polygon class="st9" points="435.5,597.9 439.3,572.5 468.6,588 			"/>
			<polygon class="st4" points="439.3,572.5 452.6,549.6 465,556.4 			"/>
			<polygon class="st3" points="439.3,572.5 465,556.4 468.6,588 			"/>
			<polygon class="st9" points="392.3,342.4 314.1,337.4 372.1,376.8 			"/>
			<polygon class="st2" points="372.1,376.8 293.5,380.4 360.7,395.4 			"/>
			<polygon class="st9" points="396,180.2 332.8,204.6 344.9,247.6 			"/>
			<g>
				<polygon class="st2" points="290.3,235 332.8,204.6 344.9,247.6 				"/>
			</g>
			<polygon class="st3" points="290.3,235 300.2,283.7 344.9,247.6 			"/>
			<g>
				<polygon class="st2" points="290.3,235 258.2,273.6 300.2,283.7 				"/>
			</g>
			<polygon class="st9" points="258.2,273.6 248.8,235.9 223.6,284 			"/>
			<polygon class="st3" points="258.2,273.6 282,321.1 300.2,283.7 			"/>
			<g>
				<polygon class="st2" points="223.6,284 282,321.1 258.2,273.6 				"/>
			</g>
			<polygon class="st9" points="221.6,367.1 209.9,415 205.6,379.1 			"/>
			<g>
				<polygon class="st2" points="221.6,367.1 261.1,385.5 209.9,415 				"/>
			</g>
			<polygon class="st9" points="209.9,415 252.1,442.2 261.1,385.5 			"/>
			<polygon class="st2" points="209.9,415 227.2,456.1 252.1,442.2 			"/>
			<polygon class="st9" points="252.1,442.2 257.3,495.4 227.2,456.1 			"/>
			<polygon class="st9" points="321.1,449.1 343.8,459.7 343.2,432.8 			"/>
			<g>
				<polygon class="st2" points="321.1,449.1 319.8,492.5 343.8,459.7 				"/>
			</g>
			<polygon class="st9" points="319.8,492.5 354.4,501.5 343.8,459.7 			"/>
			<polygon class="st3" points="354.4,501.5 340.4,554.6 375.1,546.5 			"/>
			<polygon class="st9" points="400.4,539 375.1,546.5 354.4,501.5 			"/>
			<polygon class="st2" points="223.6,284 216.2,319.2 282,321.1 			"/>
			<polygon class="st9" points="216.2,319.2 227.2,332.5 282,321.1 			"/>
			<polygon class="st9" points="216.2,319.2 201.5,346.9 227.2,332.5 			"/>
			<polygon class="st11" points="216.2,319.2 158.4,314.8 223.6,284 			"/>
			<polygon class="st12" points="216.2,319.2 201.5,346.9 164.5,342.8 			"/>
			<polygon class="st13" points="158.4,314.8 164.5,342.8 216.2,319.2 			"/>
			<polygon class="st14" points="158.4,314.8 127.4,357 164.5,342.8 			"/>
			<g>
				<polygon class="st2" points="332.8,204.6 401.1,128.9 396,180.2 				"/>
			</g>
			<polygon class="st2" points="332.8,204.6 276.2,207.5 327.9,164.4 			"/>
			<polygon class="st9" points="327.9,164.4 332.8,204.6 351.5,149.8 			"/>
			<polygon class="st2" points="332.8,204.6 351.5,149.8 401.1,128.9 			"/>
			<polygon class="st3" points="276.2,207.5 290.3,235 332.8,204.6 			"/>
			<polygon class="st9" points="276.2,207.5 248.8,235.9 290.3,235 			"/>
			<polygon class="st3" points="248.8,235.9 258.2,273.6 290.3,235 			"/>
			<polygon class="st9" points="436.9,253 462.2,298.8 459.6,254.5 			"/>
			<g>
				<polygon class="st2" points="392.3,342.4 462.2,298.8 394.1,294.8 				"/>
			</g>
			<polygon class="st3" points="394.1,294.8 416.6,274.3 462.2,298.8 			"/>
			<polygon class="st3" points="416.6,274.3 436.9,253 462.2,298.8 			"/>
			<polygon class="st3" points="392.3,342.4 433,377.7 410.6,379.3 			"/>
			<polygon class="st9" points="462.2,298.8 433,377.7 392.3,342.4 			"/>
			<polygon class="st3" points="462.2,298.8 454.8,344.7 433,377.7 			"/>
			<g>
				<polygon class="st2" points="396,180.2 344.9,247.6 405.2,210 				"/>
			</g>
			<polygon class="st9" points="293.5,380.4 286,433.7 360.7,395.4 			"/>
			<g>
				<polygon class="st2" points="405.2,210 445.2,219.3 443.2,206.6 				"/>
			</g>
			<polygon class="st3" points="405.2,210 386.8,243.8 445.2,219.3 			"/>
			<polygon class="st9" points="386.8,243.8 436.9,253 445.2,219.3 			"/>
			<polygon class="st4" points="344.9,247.6 386.8,243.8 405.2,210 			"/>
			<polygon class="st3" points="344.9,247.6 338.7,301 386.8,243.8 			"/>
			<g>
				<polygon class="st2" points="386.8,243.8 416.6,274.3 436.9,253 				"/>
			</g>
			<polygon class="st9" points="386.8,243.8 369.6,264.4 416.6,274.3 			"/>
			<polygon class="st4" points="369.6,264.4 394.1,294.8 416.6,274.3 			"/>
			<g>
				<polygon class="st2" points="338.7,301 394.1,294.8 369.6,264.4 				"/>
			</g>
			<polygon class="st3" points="338.7,301 392.3,342.4 394.1,294.8 			"/>
			<g>
				<polygon class="st2" points="300.2,283.7 338.7,301 344.9,247.6 				"/>
			</g>
			<g>
				<polygon class="st2" points="338.7,301 314.1,337.4 392.3,342.4 				"/>
			</g>
			<g>
				<polygon class="st2" points="314.1,337.4 293.5,380.4 372.1,376.8 				"/>
			</g>
			<polygon class="st15" points="340.4,554.6 395.3,565.3 375.1,546.5 			"/>
			<polygon class="st9" points="340.4,554.6 315.1,540.9 354.4,501.5 			"/>
			<polygon class="st3" points="315.1,540.9 319.8,492.5 354.4,501.5 			"/>
			<polygon class="st9" points="319.8,492.5 287.9,521.3 315.1,540.9 			"/>
			<polygon class="st3" points="294.8,490.7 287.9,521.3 319.8,492.5 			"/>
			<polygon class="st2" points="294.8,490.7 257.7,495.9 287.9,521.3 			"/>
			<polygon class="st9" points="257.7,495.9 279.3,467.1 294.8,490.7 			"/>
			<polygon class="st3" points="279.3,467.1 252.1,442.2 257.7,495.9 			"/>
			<polygon class="st3" points="252.1,442.2 286,433.7 279.3,467.1 			"/>
			<g>
				<polygon class="st2" points="252.1,442.2 261.1,385.5 286,433.7 				"/>
			</g>
			<polygon class="st3" points="261.1,385.5 293.5,380.4 286,433.7 			"/>
			<g>
				<polygon class="st2" points="293.5,380.4 282,321.1 261.1,385.5 				"/>
			</g>
			<polygon class="st9" points="282,321.1 314.1,337.4 293.5,380.4 			"/>
			<polygon class="st9" points="300.2,283.7 282,321.1 338.7,301 			"/>
			<polygon class="st3" points="282,321.1 314.1,337.4 338.7,301 			"/>
			<g>
				<polygon class="st2" points="227.2,332.5 246.3,348.7 282,321.1 				"/>
			</g>
		</g>
	</g>
</g>
</svg>
