<?xml version="1.0" encoding="utf-8"?>
<!-- Generator: Adobe Illustrator 21.1.0, SVG Export Plug-In . SVG Version: 6.00 Build 0)  -->
<svg version="1.1" id="Layer_1" xmlns="http://www.w3.org/2000/svg" xmlns:xlink="http://www.w3.org/1999/xlink" x="0px" y="0px"
	 viewBox="0 0 800 533" style="enable-background:new 0 0 800 533;" xml:space="preserve">
<style type="text/css">
	.st0{fill:#C3CFCF;}
	.st1{fill:#962A41;}
	.st2{fill:#E9E9EA;}
	.st3{fill:#1F3640;}
	.st4{fill:#B88D2D;}
	.st5{enable-background:new    ;}
</style>
<g id="Layer_1_1_">
	<g>
		<rect class="st0" width="800" height="533"/>
	</g>
</g>
<g id="Layer_2">
	<polygon class="st1" points="333.1,444.5 327.1,450.5 359,450.5 365,444.5 	"/>
	<polygon class="st0" points="272.2,444.1 268.7,447.5 279.2,447.5 282.6,444.1 	"/>
	<polygon class="st1" points="267.7,448.6 264.3,452 274.7,452 278.1,448.6 	"/>
	<polygon class="st1" points="226.4,227.3 210.3,227.3 203.6,238.9 214.8,238.9 	"/>
	<polygon class="st1" points="145.3,227.3 125.1,247.5 149.6,247.5 161.4,227.3 	"/>
	<polygon class="st2" points="352.2,340.7 380.4,340.7 372,326.2 366.7,326.2 	"/>
	<polygon class="st1" points="410.9,330.6 421,320.5 404.8,320.5 410.6,330.6 	"/>
	<polygon class="st1" points="474,392.4 444.5,392.4 448.9,400.1 466.3,400.1 	"/>
	<polygon class="st0" points="368.4,233.6 374.8,227.3 349.3,227.3 353,233.6 	"/>
	<polygon class="st2" points="298.8,233.6 318.5,233.6 314.9,227.3 305.1,227.3 	"/>
	<g>
		<polygon class="st3" points="388.8,290.5 398.9,280.4 376.6,280.4 382.4,290.5 		"/>
	</g>
	<polygon class="st1" points="214.5,137.1 204.4,147.2 220.6,147.2 226.5,137.1 	"/>
	<g>
		<polygon class="st3" points="263.5,137.1 252.8,137.1 246.9,147.2 253.4,147.2 		"/>
	</g>
	<polygon class="st2" points="137.3,265.8 130.7,272.4 140.7,272.4 144.5,265.8 	"/>
	<g>
		<polygon class="st3" points="186.8,262.3 173.2,262.3 167.3,272.4 176.7,272.4 		"/>
	</g>
	<g>
		<polygon class="st3" points="364.4,361.3 388.8,361.3 383,351.2 374.5,351.2 		"/>
	</g>
	<polygon class="st2" points="429.4,361.3 439.5,351.2 413.6,351.2 419.4,361.3 	"/>
	<polygon class="st4" points="268.3,188.2 295.7,188.2 286.8,172.7 276.1,172.7 	"/>
	<g>
		<polygon class="st3" points="326.7,197.9 346.6,177.9 312.9,177.9 324.4,197.9 		"/>
	</g>
	<g>
		<polygon class="st3" points="138.3,374.6 116,374.6 107.7,388.7 124.2,388.7 		"/>
	</g>
	<polygon class="st1" points="71.4,374.6 57.3,388.7 74.3,388.7 82.6,374.6 	"/>
	<polygon class="st2" points="81.2,422.8 96,397.5 75.8,397.5 50.9,440.2 115.2,440.2 132.6,422.8 	"/>
	<g>
		<polygon class="st3" points="260,418.8 245.4,433.4 282.8,433.4 297.5,418.8 		"/>
	</g>
	<polygon class="st1" points="314.2,418.8 299.5,433.4 331.4,433.4 346.1,418.8 	"/>
	<polygon class="st2" points="324.8,408.2 318.8,414.2 350.7,414.2 356.7,408.2 	"/>
	<g>
		<polygon class="st3" points="167.7,279.7 149.7,279.7 120.2,330.1 138.2,330.1 		"/>
	</g>
	<polygon class="st4" points="434.2,422.6 354.1,422.6 336.1,440.6 465.3,440.6 443.5,402.5 422.7,402.5 	"/>
	<polygon class="st4" points="245,150.6 224.1,150.6 182.1,222.4 203.1,222.4 	"/>
	<polygon class="st4" points="129.9,343.5 112.9,343.5 99.9,365.8 116.9,365.8 	"/>
	<polygon class="st4" points="191.6,418.8 177,433.4 219.8,433.4 234.5,418.8 	"/>
	<polygon class="st1" points="391.5,351.2 408.4,351.2 402.3,340.7 385.5,340.7 	"/>
	<polygon class="st4" points="320.3,227.3 337.2,227.3 322.2,201.1 305.3,201.1 	"/>
	<g>
		<polygon class="st3" points="373.8,320.5 390.7,320.5 369.8,284 352.9,284 		"/>
	</g>
	<polygon class="st1" points="263.2,110.8 296.9,169.5 317.6,169.5 263.3,75 230.2,131.8 250.9,131.8 	"/>
	<polygon class="st2" points="350.1,274.6 365.6,274.6 346.4,241.1 330.8,241.1 	"/>
	<polygon class="st2" points="415.2,392.4 432.1,392.4 414.2,361.3 397.3,361.3 	"/>
	<polygon class="st2" points="185.9,247.5 169,247.5 163.8,256.4 180.8,256.4 	"/>
	<g>
		<polygon class="st3" points="189.3,227.3 172.3,227.3 160.5,247.5 177.5,247.5 		"/>
	</g>
	<polygon class="st2" points="206.9,227.3 199.9,227.3 188.1,247.5 195.1,247.5 	"/>
	<polygon class="st4" points="396.7,340.7 413.6,340.7 401.9,320.5 385,320.5 	"/>
	<g>
		<polygon class="st3" points="425.8,392.4 430.2,400.1 443.1,400.1 438.7,392.4 		"/>
	</g>
	<polygon class="st1" points="333.7,233.6 344.3,233.6 340.7,227.3 330.1,227.3 	"/>
	<polygon class="st1" points="346,233.6 350.8,233.6 347.2,227.3 342.4,227.3 	"/>
	<polygon class="st4" points="370.5,274.6 381.2,274.6 373.1,260.5 362.4,260.5 	"/>
	<polygon class="st1" points="166.6,262.3 149.7,262.3 143.8,272.4 160.7,272.4 	"/>
	<polygon class="st1" points="143.1,333.4 126.1,333.4 120.2,343.5 137.2,343.5 	"/>
	<polygon class="st4" points="158.2,333.4 149.7,333.4 143.8,343.5 152.3,343.5 	"/>
	<g>
		<polygon class="st3" points="109.2,333.4 92.2,333.4 86.3,343.5 103.3,343.5 		"/>
	</g>
	<polygon class="st2" points="305,197.9 318.5,197.9 304,172.7 290.6,172.7 	"/>
	<polygon class="st4" points="99.6,374.6 92.1,374.6 83.8,388.7 91.4,388.7 	"/>
	<polygon class="st1" points="109.7,374.6 102.2,374.6 93.9,388.7 101.5,388.7 	"/>
	<polygon class="st4" points="143.4,425.6 128.8,440.2 160,440.2 174.6,425.6 	"/>
	<g>
		<polygon class="st3" points="152.8,416.2 147,422 178.2,422 184,416.2 		"/>
	</g>
	<polygon class="st1" points="246.1,407.1 231.5,421.8 257,421.8 271.7,407.1 	"/>
	<polygon class="st2" points="214.4,438.9 204.6,448.6 230.2,448.6 239.9,438.9 	"/>
	<polygon class="st2" points="289.1,427.2 274.5,441.8 284.9,441.8 299.5,427.2 	"/>
</g>
<g id="Layer_3">
	<g class="st5">
		<path class="st3" d="M257.9,318.4v1.7H253v14.8h-1.7v-14.8h-5v-1.7H257.9z"/>
		<path class="st3" d="M266.3,323.1c2.5,0,3.7,1.3,3.7,3.8v4.2c0,2.5-1.2,3.8-3.7,3.8h-4c-2.5,0-3.7-1.3-3.7-3.8v-4.2
			c0-2.5,1.2-3.8,3.7-3.8H266.3z M260.2,330.8c0,1.6,0.8,2.4,2.3,2.4h3.4c1.6,0,2.3-0.8,2.3-2.4v-3.7c0-1.6-0.8-2.4-2.3-2.4h-3.4
			c-1.6,0-2.3,0.8-2.3,2.4V330.8z"/>
		<path class="st3" d="M286.7,323.1v1.6h-4.9c-1.6,0-2.3,0.8-2.3,2.4v3.7c0,1.6,0.8,2.4,2.3,2.4h4.9v1.6h-5.3
			c-2.5,0-3.7-1.3-3.7-3.8v-4.2c0-2.5,1.2-3.8,3.7-3.8H286.7z"/>
		<path class="st3" d="M296.1,323.1v1.6h-2.9c-1.6,0-2.3,0.8-2.3,2.4v7.7h-1.6v-8c0-2.5,1.2-3.8,3.7-3.8H296.1z"/>
		<path class="st3" d="M305.8,323.1c2.1,0,3.2,1,3.2,3.1v0.9c0,1.7-1,2.6-3,2.6h-5.5v-1.3h5c1.2,0,1.8-0.5,1.8-1.6v-0.5
			c0-1.2-0.6-1.8-1.9-1.8h-3.6c-1.6,0-2.3,0.8-2.3,2.4v4c0,1.6,0.8,2.3,2.3,2.3h6.7v1.6h-6.9c-2.5,0-3.7-1.3-3.7-3.8v-4.2
			c0-2.5,1.2-3.8,3.7-3.8H305.8z"/>
		<path class="st3" d="M318.6,323.1c2.5,0,3.7,1.3,3.7,3.8v4.2c0,2.5-1.2,3.8-3.7,3.8h-4.2c-2.1,0-3.1-1-3.1-3.1v-0.9
			c0-1.7,1-2.6,3-2.6h5.4v1.3h-5c-1.2,0-1.8,0.5-1.8,1.6v0.5c0,1.2,0.6,1.8,1.9,1.8h3.6c1.5,0,2.3-0.8,2.3-2.4v-4
			c0-1.5-0.7-2.3-2.2-2.3h-6.7v-1.6H318.6z"/>
		<path class="st3" d="M327.8,319.2v3.8h2.6v1.5h-2.6v10.3h-1.6v-10.3h-2.2v-1.5h2.2v-3.8H327.8z"/>
		<path class="st3" d="M339.9,323.1c2.1,0,3.2,1,3.2,3.1v0.9c0,1.7-1,2.6-3,2.6h-5.5v-1.3h5c1.2,0,1.8-0.5,1.8-1.6v-0.5
			c0-1.2-0.6-1.8-1.9-1.8H336c-1.6,0-2.3,0.8-2.3,2.4v4c0,1.6,0.8,2.3,2.3,2.3h6.7v1.6h-6.9c-2.5,0-3.7-1.3-3.7-3.8v-4.2
			c0-2.5,1.2-3.8,3.7-3.8H339.9z"/>
	</g>
	<g class="st5">
		<path class="st3" d="M250.3,346.3v3.8h2.6v1.5h-2.6V362h-1.6v-10.3h-2.2v-1.5h2.2v-3.8H250.3z"/>
		<path class="st3" d="M256.5,345.3v4.9h5.9c2.5,0,3.7,1.3,3.7,3.8v8h-1.6v-7.7c0-1.6-0.8-2.4-2.3-2.4h-5.6V362h-1.6v-16.6H256.5z"
			/>
		<path class="st3" d="M276.5,350.2c2.1,0,3.2,1,3.2,3.1v0.9c0,1.7-1,2.6-3,2.6h-5.5v-1.3h5c1.2,0,1.8-0.5,1.8-1.6v-0.5
			c0-1.2-0.6-1.8-1.9-1.8h-3.6c-1.6,0-2.3,0.8-2.3,2.4v4c0,1.6,0.8,2.3,2.3,2.3h6.7v1.6h-6.9c-2.5,0-3.7-1.3-3.7-3.8v-4.2
			c0-2.5,1.2-3.8,3.7-3.8H276.5z"/>
		<path class="st3" d="M289.3,345.3v2.6h-1.6v-2.6H289.3z M289.3,350.3V362h-1.6v-11.7H289.3z"/>
		<path class="st3" d="M293.7,345.3V362h-1.6v-16.6H293.7z"/>
		<path class="st3" d="M298.2,345.3V362h-1.6v-16.6H298.2z"/>
		<path class="st3" d="M302.6,350.2v7.7c0,1.6,0.8,2.4,2.3,2.4h3.2c1.6,0,2.3-0.8,2.3-2.4v-7.7h1.6v8c0,2.5-1.2,3.8-3.7,3.8h-3.8
			c-2.5,0-3.7-1.3-3.7-3.8v-8H302.6z"/>
		<path class="st3" d="M324.2,350.2v1.4h-6.7c-1,0-1.5,0.5-1.5,1.4v0.9c0,0.9,0.5,1.3,1.4,1.3h4.7c1.7,0,2.6,0.8,2.6,2.4v1.7
			c0,1.7-0.9,2.6-2.8,2.6h-7.4v-1.4h7c1.1,0,1.6-0.5,1.6-1.4v-1.3c0-0.9-0.5-1.3-1.4-1.3H317c-1.7,0-2.6-0.8-2.6-2.4v-1.3
			c0-1.7,0.9-2.6,2.7-2.6H324.2z"/>
		<path class="st3" d="M328.7,345.3v2.6h-1.6v-2.6H328.7z M328.7,350.3V362h-1.6v-11.7H328.7z"/>
		<path class="st3" d="M339.1,350.2c2.5,0,3.7,1.3,3.7,3.8v4.2c0,2.5-1.2,3.8-3.7,3.8h-4c-2.5,0-3.7-1.3-3.7-3.8v-4.2
			c0-2.5,1.2-3.8,3.7-3.8H339.1z M333,357.9c0,1.6,0.8,2.4,2.3,2.4h3.4c1.6,0,2.3-0.8,2.3-2.4v-3.7c0-1.6-0.8-2.4-2.3-2.4h-3.4
			c-1.6,0-2.3,0.8-2.3,2.4V357.9z"/>
		<path class="st3" d="M353,350.2c2.5,0,3.7,1.3,3.7,3.8v8H355v-7.7c0-1.6-0.8-2.4-2.3-2.4h-5.6V362h-1.6v-11.8H353z"/>
	</g>
	<g class="st5">
		<path class="st3" d="M254.7,377.3c2.5,0,3.7,1.3,3.7,3.8v4.2c0,2.5-1.2,3.8-3.7,3.8h-4c-2.5,0-3.7-1.3-3.7-3.8V381
			c0-2.5,1.2-3.8,3.7-3.8H254.7z M248.7,385c0,1.6,0.8,2.4,2.3,2.4h3.4c1.6,0,2.3-0.8,2.3-2.4v-3.7c0-1.6-0.8-2.4-2.3-2.4H251
			c-1.6,0-2.3,0.8-2.3,2.4V385z"/>
		<path class="st3" d="M265.3,372.4v1.4h-1.1c-1.1,0-1.6,0.5-1.6,1.6v1.9h2.6v1.5h-2.6v10.3H261v-13.7c0-2,1-3,2.9-3H265.3z"/>
		<path class="st3" d="M286.3,377.3c2.4,0,3.6,1.3,3.6,3.8v8h-1.6v-7.7c0-1.6-0.8-2.4-2.3-2.4h-3.9v10.2h-1.6v-10.2h-6.2v10.2h-1.6
			v-11.8H286.3z"/>
		<path class="st3" d="M300.2,377.3c2.5,0,3.7,1.3,3.7,3.8v4.2c0,2.5-1.2,3.8-3.7,3.8h-4c-2.5,0-3.7-1.3-3.7-3.8V381
			c0-2.5,1.2-3.8,3.7-3.8H300.2z M294.2,385c0,1.6,0.8,2.4,2.3,2.4h3.4c1.6,0,2.3-0.8,2.3-2.4v-3.7c0-1.6-0.8-2.4-2.3-2.4h-3.4
			c-1.6,0-2.3,0.8-2.3,2.4V385z"/>
		<path class="st3" d="M309.4,373.4v3.8h2.6v1.5h-2.6v10.3h-1.6v-10.3h-2.2v-1.5h2.2v-3.8H309.4z"/>
		<path class="st3" d="M315.7,372.4v2.6h-1.6v-2.6H315.7z M315.7,377.4v11.7h-1.6v-11.7H315.7z"/>
		<path class="st3" d="M326.1,377.3c2.5,0,3.7,1.3,3.7,3.8v4.2c0,2.5-1.2,3.8-3.7,3.8h-4c-2.5,0-3.7-1.3-3.7-3.8V381
			c0-2.5,1.2-3.8,3.7-3.8H326.1z M320,385c0,1.6,0.8,2.4,2.3,2.4h3.4c1.6,0,2.3-0.8,2.3-2.4v-3.7c0-1.6-0.8-2.4-2.3-2.4h-3.4
			c-1.6,0-2.3,0.8-2.3,2.4V385z"/>
		<path class="st3" d="M340,377.3c2.5,0,3.7,1.3,3.7,3.8v8H342v-7.7c0-1.6-0.8-2.4-2.3-2.4h-5.6v10.1h-1.6v-11.8H340z"/>
	</g>
</g>
</svg>
