<?xml version="1.0" encoding="utf-8"?>
<!-- Generator: Adobe Illustrator 21.1.0, SVG Export Plug-In . SVG Version: 6.00 Build 0)  -->
<svg version="1.1" xmlns="http://www.w3.org/2000/svg" xmlns:xlink="http://www.w3.org/1999/xlink" x="0px" y="0px"
	 viewBox="0 0 800 533" style="enable-background:new 0 0 800 533;" xml:space="preserve">
<style type="text/css">
	.st0{fill:#1F3640;}
	.st1{fill:#962A41;}
	.st2{fill:#C3CFCF;}
	.st3{fill:#E9E9EA;}
	.st4{fill:#B88D2D;}
	.st5{font-family:'ZektonRg-Regular';}
	.st6{font-size:22.5761px;}
</style>
<g id="Layer_1">
	<g>
		<rect class="st0" width="800" height="533"/>
	</g>
</g>
<g id="Layer_2">
	<polygon class="st1" points="329.1,444.5 323.1,450.5 355,450.5 361,444.5 	"/>
	<polygon class="st2" points="268.2,444.1 264.7,447.5 275.2,447.5 278.6,444.1 	"/>
	<polygon class="st1" points="263.7,448.6 260.3,452 270.7,452 274.1,448.6 	"/>
	<polygon class="st1" points="222.4,227.3 206.3,227.3 199.6,238.9 210.8,238.9 	"/>
	<polygon class="st1" points="141.3,227.3 121.1,247.5 145.6,247.5 157.4,227.3 	"/>
	<polygon class="st3" points="348.2,340.7 376.4,340.7 368,326.2 362.7,326.2 	"/>
	<polygon class="st1" points="406.9,330.6 417,320.5 400.8,320.5 406.6,330.6 	"/>
	<polygon class="st1" points="470,392.4 440.5,392.4 444.9,400.1 462.3,400.1 	"/>
	<polygon class="st2" points="364.4,233.6 370.8,227.3 345.3,227.3 349,233.6 	"/>
	<polygon class="st3" points="294.8,233.6 314.5,233.6 310.9,227.3 301.1,227.3 	"/>
	<polygon class="st2" points="384.8,290.5 394.9,280.4 372.6,280.4 378.4,290.5 	"/>
	<polygon class="st1" points="210.5,137.1 200.4,147.2 216.6,147.2 222.5,137.1 	"/>
	<polygon class="st2" points="259.5,137.1 248.8,137.1 242.9,147.2 249.4,147.2 	"/>
	<polygon class="st3" points="133.3,265.8 126.7,272.4 136.7,272.4 140.5,265.8 	"/>
	<polygon class="st2" points="182.8,262.3 169.2,262.3 163.3,272.4 172.7,272.4 	"/>
	<polygon class="st2" points="360.4,361.3 384.8,361.3 379,351.2 370.5,351.2 	"/>
	<polygon class="st3" points="425.4,361.3 435.5,351.2 409.6,351.2 415.4,361.3 	"/>
	<polygon class="st4" points="264.3,188.2 291.7,188.2 282.8,172.7 272.1,172.7 	"/>
	<polygon class="st2" points="322.7,197.9 342.6,177.9 308.9,177.9 320.4,197.9 	"/>
	<polygon class="st2" points="134.3,374.6 112,374.6 103.7,388.7 120.2,388.7 	"/>
	<polygon class="st1" points="67.4,374.6 53.3,388.7 70.3,388.7 78.6,374.6 	"/>
	<polygon class="st3" points="77.2,422.8 92,397.5 71.8,397.5 46.9,440.2 111.2,440.2 128.6,422.8 	"/>
	<polygon class="st2" points="256,418.8 241.4,433.4 278.8,433.4 293.5,418.8 	"/>
	<polygon class="st1" points="310.2,418.8 295.5,433.4 327.4,433.4 342.1,418.8 	"/>
	<polygon class="st3" points="320.8,408.2 314.8,414.2 346.7,414.2 352.7,408.2 	"/>
	<polygon class="st2" points="163.7,279.7 145.7,279.7 116.2,330.1 134.2,330.1 	"/>
	<polygon class="st4" points="430.2,422.6 350.1,422.6 332.1,440.6 461.3,440.6 439.5,402.5 418.7,402.5 	"/>
	<polygon class="st4" points="241,150.6 220.1,150.6 178.1,222.4 199.1,222.4 	"/>
	<polygon class="st4" points="125.9,343.5 108.9,343.5 95.9,365.8 112.9,365.8 	"/>
	<polygon class="st4" points="187.6,418.8 173,433.4 215.8,433.4 230.5,418.8 	"/>
	<polygon class="st1" points="387.5,351.2 404.4,351.2 398.3,340.7 381.5,340.7 	"/>
	<polygon class="st4" points="316.3,227.3 333.2,227.3 318.2,201.1 301.3,201.1 	"/>
	<polygon class="st2" points="369.8,320.5 386.7,320.5 365.8,284 348.9,284 	"/>
	<polygon class="st1" points="259.2,110.8 292.9,169.5 313.6,169.5 259.3,75 226.2,131.8 246.9,131.8 	"/>
	<polygon class="st3" points="346.1,274.6 361.6,274.6 342.4,241.1 326.8,241.1 	"/>
	<polygon class="st3" points="411.2,392.4 428.1,392.4 410.2,361.3 393.3,361.3 	"/>
	<polygon class="st3" points="181.9,247.5 165,247.5 159.8,256.4 176.8,256.4 	"/>
	<polygon class="st2" points="185.3,227.3 168.3,227.3 156.5,247.5 173.5,247.5 	"/>
	<polygon class="st3" points="202.9,227.3 195.9,227.3 184.1,247.5 191.1,247.5 	"/>
	<polygon class="st4" points="392.7,340.7 409.6,340.7 397.9,320.5 381,320.5 	"/>
	<polygon class="st2" points="421.8,392.4 426.2,400.1 439.1,400.1 434.7,392.4 	"/>
	<polygon class="st1" points="329.7,233.6 340.3,233.6 336.7,227.3 326.1,227.3 	"/>
	<polygon class="st1" points="342,233.6 346.8,233.6 343.2,227.3 338.4,227.3 	"/>
	<polygon class="st4" points="366.5,274.6 377.2,274.6 369.1,260.5 358.4,260.5 	"/>
	<polygon class="st1" points="162.6,262.3 145.7,262.3 139.8,272.4 156.7,272.4 	"/>
	<polygon class="st1" points="139.1,333.4 122.1,333.4 116.2,343.5 133.2,343.5 	"/>
	<polygon class="st4" points="154.2,333.4 145.7,333.4 139.8,343.5 148.3,343.5 	"/>
	<polygon class="st2" points="105.2,333.4 88.2,333.4 82.3,343.5 99.3,343.5 	"/>
	<polygon class="st3" points="301,197.9 314.5,197.9 300,172.7 286.6,172.7 	"/>
	<polygon class="st4" points="95.6,374.6 88.1,374.6 79.8,388.7 87.4,388.7 	"/>
	<polygon class="st1" points="105.7,374.6 98.2,374.6 89.9,388.7 97.5,388.7 	"/>
	<polygon class="st4" points="139.4,425.6 124.8,440.2 156,440.2 170.6,425.6 	"/>
	<polygon class="st2" points="148.8,416.2 143,422 174.2,422 180,416.2 	"/>
	<polygon class="st1" points="242.1,407.1 227.5,421.8 253,421.8 267.7,407.1 	"/>
	<polygon class="st3" points="210.4,438.9 200.6,448.6 226.2,448.6 235.9,438.9 	"/>
	<polygon class="st3" points="285.1,427.2 270.5,441.8 280.9,441.8 295.5,427.2 	"/>
</g>
<g id="Layer_3">
	<text transform="matrix(1 0 0 1 241.7764 334.8613)"><tspan x="0" y="0" class="st3 st5 st6">To create</tspan><tspan x="0" y="27.1" class="st3 st5 st6">the illusion</tspan><tspan x="0" y="54.2" class="st3 st5 st6">of motion</tspan></text>
</g>
</svg>
