<?xml version="1.0" encoding="utf-8"?>
<!-- Generator: Adobe Illustrator 21.1.0, SVG Export Plug-In . SVG Version: 6.00 Build 0)  -->
<svg version="1.1" xmlns="http://www.w3.org/2000/svg" xmlns:xlink="http://www.w3.org/1999/xlink" x="0px" y="0px"
	 viewBox="0 0 800 533" style="enable-background:new 0 0 800 533;" xml:space="preserve">
<style type="text/css">
	.st0{fill:#C3CFCF;}
	.st1{fill:#962A41;}
	.st2{fill:#E9E9EA;}
	.st3{fill:#1F3640;}
	.st4{fill:#B88D2D;}
	.st5{font-family:'ZektonRg-Regular';}
	.st6{font-size:22.5761px;}
</style>
<g id="Layer_1">
	<g>
		<rect class="st0" width="800" height="533"/>
	</g>
</g>
<g id="Layer_2">
	<polygon class="st1" points="333.1,444.5 327.1,450.5 359,450.5 365,444.5 	"/>
	<polygon class="st0" points="272.2,444.1 268.7,447.5 279.2,447.5 282.6,444.1 	"/>
	<polygon class="st1" points="267.7,448.6 264.3,452 274.7,452 278.1,448.6 	"/>
	<polygon class="st1" points="226.4,227.3 210.3,227.3 203.6,238.9 214.8,238.9 	"/>
	<polygon class="st1" points="145.3,227.3 125.1,247.5 149.6,247.5 161.4,227.3 	"/>
	<polygon class="st2" points="352.2,340.7 380.4,340.7 372,326.2 366.7,326.2 	"/>
	<polygon class="st1" points="410.9,330.6 421,320.5 404.8,320.5 410.6,330.6 	"/>
	<polygon class="st1" points="474,392.4 444.5,392.4 448.9,400.1 466.3,400.1 	"/>
	<polygon class="st0" points="368.4,233.6 374.8,227.3 349.3,227.3 353,233.6 	"/>
	<polygon class="st2" points="298.8,233.6 318.5,233.6 314.9,227.3 305.1,227.3 	"/>
	<g>
		<polygon class="st3" points="388.8,290.5 398.9,280.4 376.6,280.4 382.4,290.5 		"/>
	</g>
	<polygon class="st1" points="214.5,137.1 204.4,147.2 220.6,147.2 226.5,137.1 	"/>
	<g>
		<polygon class="st3" points="263.5,137.1 252.8,137.1 246.9,147.2 253.4,147.2 		"/>
	</g>
	<polygon class="st2" points="137.3,265.8 130.7,272.4 140.7,272.4 144.5,265.8 	"/>
	<g>
		<polygon class="st3" points="186.8,262.3 173.2,262.3 167.3,272.4 176.7,272.4 		"/>
	</g>
	<g>
		<polygon class="st3" points="364.4,361.3 388.8,361.3 383,351.2 374.5,351.2 		"/>
	</g>
	<polygon class="st2" points="429.4,361.3 439.5,351.2 413.6,351.2 419.4,361.3 	"/>
	<polygon class="st4" points="268.3,188.2 295.7,188.2 286.8,172.7 276.1,172.7 	"/>
	<g>
		<polygon class="st3" points="326.7,197.9 346.6,177.9 312.9,177.9 324.4,197.9 		"/>
	</g>
	<g>
		<polygon class="st3" points="138.3,374.6 116,374.6 107.7,388.7 124.2,388.7 		"/>
	</g>
	<polygon class="st1" points="71.4,374.6 57.3,388.7 74.3,388.7 82.6,374.6 	"/>
	<polygon class="st2" points="81.2,422.8 96,397.5 75.8,397.5 50.9,440.2 115.2,440.2 132.6,422.8 	"/>
	<g>
		<polygon class="st3" points="260,418.8 245.4,433.4 282.8,433.4 297.5,418.8 		"/>
	</g>
	<polygon class="st1" points="314.2,418.8 299.5,433.4 331.4,433.4 346.1,418.8 	"/>
	<polygon class="st2" points="324.8,408.2 318.8,414.2 350.7,414.2 356.7,408.2 	"/>
	<g>
		<polygon class="st3" points="167.7,279.7 149.7,279.7 120.2,330.1 138.2,330.1 		"/>
	</g>
	<polygon class="st4" points="434.2,422.6 354.1,422.6 336.1,440.6 465.3,440.6 443.5,402.5 422.7,402.5 	"/>
	<polygon class="st4" points="245,150.6 224.1,150.6 182.1,222.4 203.1,222.4 	"/>
	<polygon class="st4" points="129.9,343.5 112.9,343.5 99.9,365.8 116.9,365.8 	"/>
	<polygon class="st4" points="191.6,418.8 177,433.4 219.8,433.4 234.5,418.8 	"/>
	<polygon class="st1" points="391.5,351.2 408.4,351.2 402.3,340.7 385.5,340.7 	"/>
	<polygon class="st4" points="320.3,227.3 337.2,227.3 322.2,201.1 305.3,201.1 	"/>
	<g>
		<polygon class="st3" points="373.8,320.5 390.7,320.5 369.8,284 352.9,284 		"/>
	</g>
	<polygon class="st1" points="263.2,110.8 296.9,169.5 317.6,169.5 263.3,75 230.2,131.8 250.9,131.8 	"/>
	<polygon class="st2" points="350.1,274.6 365.6,274.6 346.4,241.1 330.8,241.1 	"/>
	<polygon class="st2" points="415.2,392.4 432.1,392.4 414.2,361.3 397.3,361.3 	"/>
	<polygon class="st2" points="185.9,247.5 169,247.5 163.8,256.4 180.8,256.4 	"/>
	<g>
		<polygon class="st3" points="189.3,227.3 172.3,227.3 160.5,247.5 177.5,247.5 		"/>
	</g>
	<polygon class="st2" points="206.9,227.3 199.9,227.3 188.1,247.5 195.1,247.5 	"/>
	<polygon class="st4" points="396.7,340.7 413.6,340.7 401.9,320.5 385,320.5 	"/>
	<g>
		<polygon class="st3" points="425.8,392.4 430.2,400.1 443.1,400.1 438.7,392.4 		"/>
	</g>
	<polygon class="st1" points="333.7,233.6 344.3,233.6 340.7,227.3 330.1,227.3 	"/>
	<polygon class="st1" points="346,233.6 350.8,233.6 347.2,227.3 342.4,227.3 	"/>
	<polygon class="st4" points="370.5,274.6 381.2,274.6 373.1,260.5 362.4,260.5 	"/>
	<polygon class="st1" points="166.6,262.3 149.7,262.3 143.8,272.4 160.7,272.4 	"/>
	<polygon class="st1" points="143.1,333.4 126.1,333.4 120.2,343.5 137.2,343.5 	"/>
	<polygon class="st4" points="158.2,333.4 149.7,333.4 143.8,343.5 152.3,343.5 	"/>
	<g>
		<polygon class="st3" points="109.2,333.4 92.2,333.4 86.3,343.5 103.3,343.5 		"/>
	</g>
	<polygon class="st2" points="305,197.9 318.5,197.9 304,172.7 290.6,172.7 	"/>
	<polygon class="st4" points="99.6,374.6 92.1,374.6 83.8,388.7 91.4,388.7 	"/>
	<polygon class="st1" points="109.7,374.6 102.2,374.6 93.9,388.7 101.5,388.7 	"/>
	<polygon class="st4" points="143.4,425.6 128.8,440.2 160,440.2 174.6,425.6 	"/>
	<g>
		<polygon class="st3" points="152.8,416.2 147,422 178.2,422 184,416.2 		"/>
	</g>
	<polygon class="st1" points="246.1,407.1 231.5,421.8 257,421.8 271.7,407.1 	"/>
	<polygon class="st2" points="214.4,438.9 204.6,448.6 230.2,448.6 239.9,438.9 	"/>
	<polygon class="st2" points="289.1,427.2 274.5,441.8 284.9,441.8 299.5,427.2 	"/>
</g>
<g id="Layer_3">
	<text transform="matrix(1 0 0 1 245.7764 334.8613)"><tspan x="0" y="0" class="st3 st5 st6">To create</tspan><tspan x="0" y="27.1" class="st3 st5 st6">the illusion</tspan><tspan x="0" y="54.2" class="st3 st5 st6">of motion</tspan></text>
</g>
</svg>
