<?xml version="1.0" encoding="utf-8"?>
<!-- Generator: Adobe Illustrator 21.1.0, SVG Export Plug-In . SVG Version: 6.00 Build 0)  -->
<svg version="1.1" id="Layer_1" xmlns="http://www.w3.org/2000/svg" xmlns:xlink="http://www.w3.org/1999/xlink" x="0px" y="0px"
	 viewBox="0 0 900 900" style="enable-background:new 0 0 900 900;" xml:space="preserve">
<style type="text/css">
	.st0{fill:#C3CFCF;}
	.st1{fill:#962A41;}
	.st2{fill:#E9E9EA;}
	.st3{fill:#1F3640;}
	.st4{fill:#B88D2D;}
	.st5{enable-background:new    ;}
</style>
<g id="Layer_1_1_">
	<g>
		<rect x="-20.4" y="-14" class="st0" width="935.9" height="945.7"/>
	</g>
</g>
<g id="Layer_2">
	<polygon class="st1" points="573.5,806.5 562.2,817.9 622.3,817.9 633.7,806.5 	"/>
	<polygon class="st0" points="458.5,805.7 451.9,812.2 471.7,812.2 478.2,805.7 	"/>
	<polygon class="st1" points="450.1,814.2 443.6,820.7 463.2,820.7 469.7,814.2 	"/>
	<polygon class="st1" points="372.1,396.7 341.7,396.7 329.1,418.6 350.2,418.6 	"/>
	<polygon class="st1" points="219.2,396.7 181,434.8 227.3,434.8 249.5,396.7 	"/>
	<polygon class="st2" points="609.6,610.7 662.7,610.7 646.9,583.3 636.9,583.3 	"/>
	<polygon class="st1" points="720.3,591.6 739.4,572.6 708.8,572.6 719.7,591.6 	"/>
	<polygon class="st1" points="839.3,708.3 783.7,708.3 792,722.7 824.8,722.7 	"/>
	<polygon class="st0" points="640.1,408.6 652.1,396.7 604.1,396.7 611,408.6 	"/>
	<polygon class="st2" points="508.8,408.6 546,408.6 539.1,396.7 520.7,396.7 	"/>
	<g>
		<polygon class="st3" points="678.6,515.9 697.7,496.9 655.6,496.9 666.5,515.9 		"/>
	</g>
	<polygon class="st1" points="349.6,226.5 330.6,245.6 361.2,245.6 372.3,226.5 	"/>
	<g>
		<polygon class="st3" points="442.1,226.5 421.9,226.5 410.8,245.6 423.1,245.6 		"/>
	</g>
	<polygon class="st2" points="204,469.4 191.6,481.8 210.5,481.8 217.6,469.4 	"/>
	<g>
		<polygon class="st3" points="297.4,462.7 271.8,462.7 260.7,481.8 278.3,481.8 		"/>
	</g>
	<g>
		<polygon class="st3" points="632.5,649.6 678.6,649.6 667.7,630.5 651.5,630.5 		"/>
	</g>
	<polygon class="st2" points="755.2,649.6 774.2,630.5 725.4,630.5 736.3,649.6 	"/>
	<polygon class="st4" points="451.2,322.9 502.9,322.9 486.1,293.6 465.9,293.6 	"/>
	<g>
		<polygon class="st3" points="561.4,341.2 598.9,303.5 535.3,303.5 557.1,341.2 		"/>
	</g>
	<g>
		<polygon class="st3" points="205.9,674.7 163.9,674.7 148.1,701.2 179.3,701.2 		"/>
	</g>
	<polygon class="st1" points="79.7,674.7 53.1,701.2 85.1,701.2 100.8,674.7 	"/>
	<polygon class="st2" points="98.1,765.6 126.1,717.8 88,717.8 41,798.4 162.3,798.4 195.1,765.6 	"/>
	<g>
		<polygon class="st3" points="435.5,758.1 408,785.6 478.6,785.6 506.3,758.1 		"/>
	</g>
	<polygon class="st1" points="537.8,758.1 510,785.6 570.3,785.6 598,758.1 	"/>
	<polygon class="st2" points="557.8,738.1 546.5,749.4 606.7,749.4 618,738.1 	"/>
	<g>
		<polygon class="st3" points="261.3,495.5 227.5,495.5 171.8,590.7 205.7,590.7 		"/>
	</g>
	<polygon class="st4" points="764.3,765.2 613.1,765.2 579.2,799.2 822.9,799.2 781.7,727.3 742.5,727.3 	"/>
	<polygon class="st4" points="407.3,252 367.8,252 288.6,387.5 328.2,387.5 	"/>
	<polygon class="st4" points="190,616 158,616 133.5,658.1 165.5,658.1 	"/>
	<polygon class="st4" points="306.5,758.1 278.9,785.6 359.7,785.6 387.4,758.1 	"/>
	<polygon class="st1" points="683.7,630.5 715.5,630.5 704,610.7 672.4,610.7 	"/>
	<polygon class="st4" points="549.3,396.7 581.2,396.7 552.9,347.3 521.1,347.3 	"/>
	<g>
		<polygon class="st3" points="650.3,572.6 682.1,572.6 642.8,503.7 610.8,503.7 		"/>
	</g>
	<polygon class="st1" points="441.6,176.9 505.1,287.7 544.2,287.7 441.7,109.3 379.3,216.5 418.4,216.5 	"/>
	<polygon class="st2" points="605.5,486 634.7,486 598.6,422.8 569.1,422.8 	"/>
	<polygon class="st2" points="728.4,708.3 760.3,708.3 726.5,649.6 694.6,649.6 	"/>
	<polygon class="st2" points="295.7,434.8 263.8,434.8 254,451.6 286.1,451.6 	"/>
	<g>
		<polygon class="st3" points="302.2,396.7 270,396.7 247.8,434.8 279.9,434.8 		"/>
	</g>
	<polygon class="st2" points="335.4,396.7 322.1,396.7 299.8,434.8 313.1,434.8 	"/>
	<polygon class="st4" points="693.4,610.7 725.4,610.7 703.3,572.6 671.4,572.6 	"/>
	<g>
		<polygon class="st3" points="748.3,708.3 756.6,722.7 781.1,722.7 772.8,708.3 		"/>
	</g>
	<polygon class="st1" points="574.6,408.6 594.6,408.6 587.8,396.7 567.8,396.7 	"/>
	<polygon class="st1" points="597.8,408.6 606.9,408.6 600.1,396.7 591,396.7 	"/>
	<polygon class="st4" points="644,486 664.2,486 648.9,459.4 628.8,459.4 	"/>
	<polygon class="st1" points="259.3,462.7 227.5,462.7 216.3,481.8 248.2,481.8 	"/>
	<polygon class="st1" points="215,596.9 182.9,596.9 171.8,616 203.8,616 	"/>
	<polygon class="st4" points="243.5,596.9 227.5,596.9 216.3,616 232.3,616 	"/>
	<g>
		<polygon class="st3" points="151,596.9 118.9,596.9 107.8,616 139.8,616 		"/>
	</g>
	<polygon class="st2" points="520.5,341.2 546,341.2 518.5,293.6 493.3,293.6 	"/>
	<polygon class="st4" points="132.9,674.7 118.7,674.7 103.1,701.2 117.4,701.2 	"/>
	<polygon class="st1" points="152,674.7 137.8,674.7 122.2,701.2 136.5,701.2 	"/>
	<polygon class="st4" points="215.5,770.9 188,798.4 246.9,798.4 274.4,770.9 	"/>
	<g>
		<polygon class="st3" points="233.3,753.1 222.3,764 281.2,764 292.1,753.1 		"/>
	</g>
	<polygon class="st1" points="409.3,736 381.8,763.7 429.8,763.7 457.6,736 	"/>
	<polygon class="st2" points="349.5,796 331,814.2 379.3,814.2 397.6,796 	"/>
	<polygon class="st2" points="490.5,773.9 462.9,801.4 482.5,801.4 510,773.9 	"/>
</g>
<g id="Layer_3">
	<g class="st5">
		<path class="st3" d="M431.6,568.6v3.2h-9.3v27.9h-3.2v-27.9h-9.5v-3.2H431.6z"/>
		<path class="st3" d="M447.4,577.5c4.7,0,6.9,2.4,6.9,7.1v7.9c0,4.7-2.2,7.1-6.9,7.1h-7.5c-4.7,0-6.9-2.4-6.9-7.1v-7.9
			c0-4.7,2.2-7.1,6.9-7.1H447.4z M435.9,592c0,3,1.5,4.5,4.3,4.5h6.4c3,0,4.3-1.5,4.3-4.5V585c0-3-1.5-4.5-4.3-4.5h-6.4
			c-3,0-4.3,1.5-4.3,4.5V592z"/>
		<path class="st3" d="M485.9,577.5v3h-9.3c-3,0-4.3,1.5-4.3,4.5v6.9c0,3,1.5,4.5,4.3,4.5h9.3v3h-10c-4.7,0-6.9-2.4-6.9-7.1v-7.9
			c0-4.7,2.2-7.1,6.9-7.1h10V577.5z"/>
		<path class="st3" d="M503.7,577.5v3h-5.5c-3,0-4.3,1.5-4.3,4.5v14.6h-3v-15.1c0-4.7,2.2-7.1,6.9-7.1L503.7,577.5L503.7,577.5
			L503.7,577.5z"/>
		<path class="st3" d="M521.9,577.5c4,0,6.1,1.9,6.1,5.9v1.7c0,3.2-1.9,4.9-5.7,4.9H512v-2.6h9.5c2.2,0,3.4-1,3.4-3v-1
			c0-2.2-1.2-3.4-3.6-3.4h-6.8c-3,0-4.3,1.5-4.3,4.5v7.5c0,3,1.5,4.3,4.3,4.3h12.6v3h-13c-4.7,0-6.9-2.4-6.9-7.1v-7.9
			c0-4.7,2.2-7.1,6.9-7.1h7.9L521.9,577.5L521.9,577.5z"/>
		<path class="st3" d="M546.1,577.5c4.7,0,6.9,2.4,6.9,7.1v7.9c0,4.7-2.2,7.1-6.9,7.1h-7.9c-4,0-5.9-1.9-5.9-5.9v-1.7
			c0-3.2,1.9-4.9,5.7-4.9h10.2v2.4h-9.5c-2.2,0-3.4,1-3.4,3v1c0,2.2,1.2,3.4,3.6,3.4h6.8c2.8,0,4.3-1.5,4.3-4.5v-7.5
			c0-2.8-1.4-4.3-4.2-4.3h-12.6v-3L546.1,577.5L546.1,577.5L546.1,577.5z"/>
		<path class="st3" d="M563.4,570.2v7.1h4.9v2.8h-4.9v19.4h-3v-19.4h-4.2v-2.8h4.2v-7.1H563.4z"/>
		<path class="st3" d="M586.3,577.5c4,0,6.1,1.9,6.1,5.9v1.7c0,3.2-1.9,4.9-5.7,4.9h-10.4v-2.6h9.5c2.2,0,3.4-1,3.4-3v-1
			c0-2.2-1.2-3.4-3.6-3.4H579c-3,0-4.3,1.5-4.3,4.5v7.5c0,3,1.5,4.3,4.3,4.3h12.6v3h-13c-4.7,0-6.9-2.4-6.9-7.1v-7.9
			c0-4.7,2.2-7.1,6.9-7.1h7.7V577.5z"/>
	</g>
	<g class="st5">
		<path class="st3" d="M417.2,621.2v7.1h4.9v2.8h-4.9v19.6h-3v-19.4h-4.2v-2.8h4.2v-7.1h3V621.2z"/>
		<path class="st3" d="M429,619.4v9.3h11.1c4.7,0,6.9,2.4,6.9,7.1v15.1h-3v-14.6c0-3-1.5-4.5-4.3-4.5h-10.5v19h-3.1v-31.4H429
			L429,619.4L429,619.4z"/>
		<path class="st3" d="M466.7,628.6c4,0,6.1,1.9,6.1,5.9v1.7c0,3.2-1.9,4.9-5.7,4.9h-10.4v-2.6h9.5c2.2,0,3.4-1,3.4-3v-1
			c0-2.2-1.2-3.4-3.6-3.4h-6.8c-3,0-4.3,1.5-4.3,4.5v7.5c0,3,1.5,4.3,4.3,4.3h12.6v3h-13c-4.7,0-6.9-2.4-6.9-7.1v-7.9
			c0-4.7,2.2-7.1,6.9-7.1h7.9V628.6z"/>
		<path class="st3" d="M490.8,619.4v4.9h-3v-4.9H490.8z M490.8,628.8v22.1h-3v-22.1H490.8z"/>
		<path class="st3" d="M499.1,619.4v31.5h-3v-31.4L499.1,619.4L499.1,619.4z"/>
		<path class="st3" d="M507.6,619.4v31.5h-3v-31.4L507.6,619.4L507.6,619.4z"/>
		<path class="st3" d="M515.9,628.6v14.6c0,3,1.5,4.5,4.3,4.5h6.1c3,0,4.3-1.5,4.3-4.5v-14.6h3v15.1c0,4.7-2.2,7.1-6.9,7.1h-7.1
			c-4.7,0-6.9-2.4-6.9-7.1v-15.1H515.9z"/>
		<path class="st3" d="M556.7,628.6v2.6H544c-1.9,0-2.8,1-2.8,2.6v1.7c0,1.7,1,2.4,2.6,2.4h8.9c3.2,0,4.9,1.5,4.9,4.5v3.2
			c0,3.2-1.7,4.9-5.3,4.9h-14V648h13.2c2.1,0,3-1,3-2.6V643c0-1.7-1-2.4-2.6-2.4h-8.9c-3.2,0-4.9-1.5-4.9-4.5v-2.4
			c0-3.2,1.7-4.9,5.1-4.9L556.7,628.6L556.7,628.6z"/>
		<path class="st3" d="M565.2,619.4v4.9h-3v-4.9H565.2z M565.2,628.8v22.1h-3v-22.1H565.2z"/>
		<path class="st3" d="M584.8,628.6c4.7,0,6.9,2.4,6.9,7.1v7.9c0,4.7-2.2,7.1-6.9,7.1h-7.5c-4.7,0-6.9-2.4-6.9-7.1v-7.9
			c0-4.7,2.2-7.1,6.9-7.1H584.8z M573.3,643.1c0,3,1.5,4.5,4.3,4.5h6.4c3,0,4.3-1.5,4.3-4.5v-6.9c0-3-1.5-4.5-4.3-4.5h-6.4
			c-3,0-4.3,1.5-4.3,4.5V643.1z"/>
		<path class="st3" d="M611,628.6c4.7,0,6.9,2.4,6.9,7.1v15.1h-3.2v-14.6c0-3-1.5-4.5-4.3-4.5h-10.5v19h-3v-22.3H611V628.6z"/>
	</g>
	<g class="st5">
		<path class="st3" d="M425.5,679.7c4.7,0,6.9,2.4,6.9,7.1v7.9c0,4.7-2.2,7.1-6.9,7.1H418c-4.7,0-6.9-2.4-6.9-7.1v-8.1
			c0-4.7,2.2-7.1,6.9-7.1h7.5V679.7z M414.2,694.3c0,3,1.5,4.5,4.3,4.5h6.4c3,0,4.3-1.5,4.3-4.5v-6.9c0-3-1.5-4.5-4.3-4.5h-6.4
			c-3,0-4.3,1.5-4.3,4.5V694.3z"/>
		<path class="st3" d="M445.6,670.5v2.6h-2.1c-2.1,0-3,1-3,3v3.6h4.9v2.8h-4.9v19.4h-3V676c0-3.8,1.9-5.7,5.5-5.7L445.6,670.5
			L445.6,670.5z"/>
		<path class="st3" d="M485.1,679.7c4.5,0,6.8,2.4,6.8,7.1v15.1h-3v-14.6c0-3-1.5-4.5-4.3-4.5h-7.3V702h-3v-19h-11.7v19.2h-3v-22.3
			h25.7L485.1,679.7L485.1,679.7z"/>
		<path class="st3" d="M511.4,679.7c4.7,0,6.9,2.4,6.9,7.1v7.9c0,4.7-2.2,7.1-6.9,7.1h-7.5c-4.7,0-6.9-2.4-6.9-7.1v-8.1
			c0-4.7,2.2-7.1,6.9-7.1h7.5V679.7z M500.1,694.3c0,3,1.5,4.5,4.3,4.5h6.4c3,0,4.3-1.5,4.3-4.5v-6.9c0-3-1.5-4.5-4.3-4.5h-6.4
			c-3,0-4.3,1.5-4.3,4.5V694.3z"/>
		<path class="st3" d="M528.8,672.4v7.1h4.9v2.8h-4.9v19.4h-3v-19.4h-4.2v-2.8h4.2v-7.1H528.8z"/>
		<path class="st3" d="M540.6,670.5v4.9h-3v-4.9H540.6z M540.6,679.9V702h-3v-22.1H540.6z"/>
		<path class="st3" d="M560.2,679.7c4.7,0,6.9,2.4,6.9,7.1v7.9c0,4.7-2.2,7.1-6.9,7.1h-7.5c-4.7,0-6.9-2.4-6.9-7.1v-8.1
			c0-4.7,2.2-7.1,6.9-7.1h7.5V679.7z M548.8,694.3c0,3,1.5,4.5,4.3,4.5h6.4c3,0,4.3-1.5,4.3-4.5v-6.9c0-3-1.5-4.5-4.3-4.5h-6.4
			c-3,0-4.3,1.5-4.3,4.5V694.3z"/>
		<path class="st3" d="M586.5,679.7c4.7,0,6.9,2.4,6.9,7.1v15.1h-3.2v-14.6c0-3-1.5-4.5-4.3-4.5h-10.5v19h-3v-22.3h14.1V679.7z"/>
	</g>
</g>
</svg>
